<svg width="1440" height="2921" viewBox="0 0 1440 2921" fill="none" xmlns="http://www.w3.org/2000/svg">
<rect x="-6" y="-37" width="1447" height="2074" fill="url(#paint0_linear_191_32)"/>
<path d="M1527.44 1169H508.225C421.112 1157.22 412.506 1165.4 375.007 1134.27C331.663 1098.29 651.004 1113.89 801.433 1082.48C921.775 1057.36 995.204 1082.49 1081.89 1104.53C1215.75 1141.55 1221.48 1162.97 1371.91 1127.2C1520.79 1091.8 1534.88 1158.6 1527.44 1169Z" fill="#D7266A"/>
<path d="M804.775 939H4.71786C-63.6631 910.692 -70.4191 930.343 -99.8549 855.574C-133.879 769.151 116.796 806.618 234.879 731.186C329.344 670.839 386.984 731.186 455.031 784.138C560.104 873.059 564.608 924.513 682.69 838.59C799.554 753.552 810.613 914.022 804.775 939Z" fill="#D7266A"/>
<rect y="2013" width="1440" height="908" fill="#F8C93D"/>
<circle cx="1085.5" cy="1666.5" r="154.5" fill="#8DA017"/>
<circle cx="1108" cy="1421" r="91" fill="#8DA017"/>
<circle cx="1192.5" cy="1593.5" r="175.5" fill="#A08217"/>
<circle cx="1387" cy="1642" r="287" fill="#8DA017"/>
<path d="M111 1794.5C111 1779.86 122.864 1768 137.5 1768H786V1821H111V1794.5Z" fill="#A01789"/>
<rect x="134" y="1609" width="8" height="159" fill="#FFFBF1"/>
<rect x="317" y="1609" width="8" height="159" fill="#FFFBF1"/>
<rect x="122" y="2011" width="665" height="65" fill="#E9A92F"/>
<rect x="128" y="1821" width="19" height="226" fill="#FFFBF1"/>
<rect x="128" y="1821" width="19" height="125" fill="#DBDBDB"/>
<rect x="122" y="2017" width="32" height="30" fill="#FFFBF1"/>
<rect x="591" y="1821" width="19" height="226" fill="#FFFBF1"/>
<rect x="585" y="2017" width="32" height="30" fill="#FFFBF1"/>
<rect x="591" y="1821" width="19" height="125" fill="#DBDBDB"/>
<rect x="694" y="1204" width="19" height="921" fill="#FFFBF1"/>
<rect x="688" y="1995" width="32" height="130" fill="#FFFBF1"/>
<rect x="694" y="1568" width="19" height="130" fill="#DBDBDB"/>
<path d="M631.786 1176.59C650.61 1176.59 690.135 1182.13 739.257 1192.65C788.199 1203.13 846.137 1218.43 901.597 1237.68C957.131 1256.97 1009.83 1280.1 1048.52 1306.15C1087.63 1332.48 1110.41 1360.42 1110.41 1388.81C1110.41 1417.34 1087.47 1446.85 1048.3 1475.59C1009.56 1504.01 956.823 1530.3 901.29 1552.74C845.821 1575.16 787.886 1593.61 738.964 1606.45C689.793 1619.36 650.421 1626.41 631.786 1626.41C595.789 1626.41 562.141 1602.56 537.146 1561.75C512.22 1521.06 496.588 1464.41 496.588 1401.5C496.588 1338.59 512.22 1281.94 537.146 1241.25C562.141 1200.44 595.789 1176.59 631.786 1176.59Z" fill="#281C64" stroke="#FFFBF1" stroke-width="13.1757"/>
<rect width="168" height="26" transform="matrix(0.998328 -0.0578068 0.0578289 0.998327 989 1328)" fill="#281C64"/>
<rect width="176" height="29" transform="matrix(0.998328 -0.057807 0.0578287 0.998327 424 1369)" fill="#281C64"/>
<rect width="176" height="24" transform="matrix(0.998328 -0.0578068 0.0578289 0.998327 988 1272)" fill="#281C64"/>
<rect width="176" height="24" transform="matrix(0.998328 -0.057807 0.0578287 0.998327 423 1317)" fill="#281C64"/>
<path d="M482.608 1315.88L433.961 1414.96L424.209 1415.81L399.144 1299.13C398.242 1294.55 396.658 1291.54 394.391 1290.1C392.124 1288.66 390.048 1287.96 388.161 1287.99L388.773 1284.16C391.91 1284.01 395.859 1283.8 400.621 1283.51C405.383 1283.22 410.202 1282.87 415.078 1282.44C420.08 1282.01 424.638 1281.55 428.753 1281.07C432.993 1280.57 436.546 1280.14 439.41 1279.76L438.799 1283.59C434.819 1284.19 432.104 1285.56 430.652 1287.7C429.315 1289.71 429.236 1293.87 430.415 1300.2L447.108 1383.59L441.987 1389.89L481.059 1311.1L482.608 1315.88ZM549.954 1297.18C552.683 1290.9 553.844 1286.13 553.437 1282.89C553.154 1279.64 551.583 1277.51 548.724 1276.5C545.979 1275.35 542.032 1274.88 536.884 1275.07L537.496 1271.24C539.258 1271.21 541.582 1271.14 544.468 1271.01C547.469 1270.75 550.6 1270.54 553.862 1270.39C557.237 1270.09 559.988 1269.85 562.114 1269.67C564.989 1269.42 567.547 1269.13 569.787 1268.81C572.151 1268.48 574.329 1268.17 576.318 1267.87L575.706 1271.7C573.26 1272.54 570.903 1273.69 568.636 1275.15C566.369 1276.61 564.162 1278.75 562.015 1281.58C559.867 1284.41 557.63 1288.39 555.303 1293.5L505.791 1408.72L496.039 1409.57L469.473 1293.02C468.446 1288.45 467.05 1285.42 465.283 1283.94C463.516 1282.45 461.877 1281.72 460.366 1281.72L460.978 1277.89C463.865 1277.76 467.501 1277.57 471.888 1277.32C476.4 1277.05 480.907 1276.72 485.408 1276.33C491.409 1275.81 496.968 1275.27 502.083 1274.69C507.198 1274.12 511.376 1273.64 514.616 1273.23L514.004 1277.06C507.774 1277.85 503.616 1279.29 501.528 1281.36C499.565 1283.42 499.304 1287.66 500.744 1294.09L518.432 1375.88L513.246 1381.43L549.954 1297.18ZM575.886 1360.68C580.839 1358.24 585.519 1355.56 589.928 1352.66C594.337 1349.76 598.036 1346.67 601.027 1343.38C605.523 1338.58 608.959 1333.18 611.335 1327.18C613.825 1321.05 614.776 1314.6 614.19 1307.85C613.973 1305.35 613.581 1303.74 613.016 1303.04C612.44 1302.21 611.652 1301.83 610.651 1301.92C607.901 1302.16 605.025 1303.86 602.024 1307.02C599.137 1310.04 596.337 1314.06 593.625 1319.08C590.901 1323.98 588.487 1329.55 586.382 1335.77C584.403 1341.99 582.883 1348.42 581.823 1355.07C580.887 1361.7 580.686 1368.08 581.218 1374.2C581.826 1381.21 583.557 1385.91 586.411 1388.3C589.379 1390.56 592.988 1391.51 597.239 1391.14C600.615 1390.85 604.706 1389.36 609.512 1386.67C614.317 1383.99 618.908 1379.56 623.285 1373.38L626.416 1374.62C624.149 1378.98 621.058 1383.28 617.144 1387.52C613.23 1391.77 608.568 1395.39 603.159 1398.37C597.739 1401.24 591.716 1402.96 585.089 1403.53C579.463 1404.02 574.312 1403.46 569.637 1401.85C565.087 1400.23 561.331 1397.6 558.369 1393.95C555.521 1390.17 553.847 1385.4 553.347 1379.65C552.771 1373.02 553.242 1366.12 554.759 1358.93C556.401 1351.73 558.941 1344.71 562.377 1337.86C565.802 1330.89 570.1 1324.53 575.27 1318.79C580.429 1312.92 586.317 1308.19 592.933 1304.59C599.538 1300.87 606.716 1298.67 614.468 1298C619.969 1297.52 624.704 1298.37 628.672 1300.54C632.629 1302.59 634.825 1306.12 635.26 1311.12C635.683 1316 634.705 1320.68 632.323 1325.17C630.067 1329.65 626.84 1333.83 622.643 1337.73C618.447 1341.62 613.654 1345.18 608.267 1348.42C603.005 1351.65 597.522 1354.52 591.82 1357.03C586.242 1359.53 580.939 1361.57 575.911 1363.14L575.886 1360.68ZM668.012 1377.62C667.419 1380.95 667.5 1383.34 668.256 1384.78C669.136 1386.22 670.389 1386.86 672.015 1386.72C673.39 1386.6 675.002 1385.58 676.85 1383.66C678.688 1381.61 680.398 1377.37 681.98 1370.93L684.574 1361.63L688.137 1361.32L684.638 1375.42C683.333 1380.7 681.425 1384.84 678.913 1387.82C676.401 1390.81 673.631 1393.01 670.603 1394.4C667.575 1395.8 664.499 1396.64 661.373 1396.91C657.247 1397.27 653.868 1396.8 651.237 1395.52C648.617 1394.36 646.568 1392.52 645.09 1390.01C643.725 1387.35 642.948 1384.21 642.758 1380.57C642.693 1376.93 643.096 1372.86 643.966 1368.37L664.905 1267.92C665.786 1263.56 665.39 1260.44 663.715 1258.57C662.041 1256.7 658.141 1256.03 652.014 1256.57L652.985 1252.51C661.976 1251.61 669.793 1250.24 676.436 1248.4C683.194 1246.43 689.657 1243.97 695.827 1241.04L668.012 1377.62ZM757.807 1289.32C753.181 1289.73 748.791 1292.12 744.638 1296.52C740.473 1300.78 736.866 1306.39 733.816 1313.33C730.891 1320.26 728.724 1327.94 727.315 1336.38C725.907 1344.82 725.583 1353.41 726.343 1362.16C726.919 1368.79 728.65 1373.49 731.536 1376.26C734.412 1378.91 737.975 1380.05 742.226 1379.68C746.227 1379.33 750.187 1377.79 754.107 1375.06C758.026 1372.32 761.84 1367.64 765.548 1361.02L769.429 1362.2C767.287 1366.54 764.384 1370.83 760.72 1375.05C757.18 1379.26 752.894 1382.85 747.86 1385.8C742.94 1388.62 737.229 1390.32 730.728 1390.88C721.976 1391.64 714.586 1389.95 708.557 1385.82C702.518 1381.55 699.069 1374.48 698.211 1364.61C697.679 1358.48 698.057 1351.96 699.346 1345.05C700.76 1338.12 703.003 1331.31 706.075 1324.62C709.136 1317.8 713.069 1311.6 717.875 1306.02C722.681 1300.44 728.267 1295.86 734.633 1292.28C740.988 1288.58 748.041 1286.39 755.793 1285.72C762.67 1285.12 768.323 1286.4 772.753 1289.54C777.298 1292.54 779.793 1296.61 780.238 1301.74C780.531 1305.11 780.006 1308.5 778.663 1311.89C777.31 1315.16 775.287 1317.98 772.596 1320.35C770.019 1322.59 766.98 1323.86 763.48 1324.17C760.479 1324.43 757.834 1323.71 755.546 1322.02C753.372 1320.2 752.138 1317.59 751.844 1314.22C751.399 1309.09 752.707 1304.57 755.768 1300.65C758.943 1296.6 762.732 1293.81 767.135 1292.29C766.026 1291.13 764.694 1290.3 763.14 1289.81C761.71 1289.3 759.933 1289.14 757.807 1289.32ZM839.556 1282.22C836.68 1282.47 833.769 1284.49 830.823 1288.27C827.99 1291.92 825.261 1296.75 822.635 1302.78C820.134 1308.79 817.943 1315.47 816.061 1322.81C814.305 1330.14 813.008 1337.69 812.17 1345.45C811.446 1353.07 811.383 1360.32 811.981 1367.19C812.372 1371.7 813.154 1374.9 814.328 1376.82C815.627 1378.72 817.34 1379.58 819.465 1379.39C822.341 1379.14 825.2 1377.26 828.044 1373.73C830.876 1370.09 833.548 1365.32 836.06 1359.43C838.572 1353.55 840.712 1347 842.479 1339.79C844.36 1332.45 845.72 1324.9 846.558 1317.14C847.395 1309.38 847.505 1301.94 846.886 1294.81C846.429 1289.56 845.563 1286.11 844.285 1284.46C843.133 1282.79 841.557 1282.05 839.556 1282.22ZM785.595 1354.94C785.095 1349.18 785.313 1342.99 786.249 1336.36C787.309 1329.72 789.193 1323.13 791.901 1316.6C794.609 1310.06 798.121 1304.09 802.437 1298.67C806.868 1293.12 812.204 1288.57 818.445 1285C824.8 1281.3 832.041 1279.1 840.168 1278.39C849.795 1277.55 857.463 1279.53 863.17 1284.33C869.003 1289.11 872.359 1296.57 873.239 1306.7C873.738 1312.45 873.458 1318.64 872.397 1325.29C871.462 1331.92 869.64 1338.5 866.933 1345.04C864.225 1351.57 860.656 1357.61 856.225 1363.16C851.908 1368.58 846.573 1373.13 840.218 1376.83C833.977 1380.4 826.793 1382.54 818.666 1383.24C809.039 1384.08 801.309 1382.1 795.476 1377.32C789.769 1372.53 786.475 1365.06 785.595 1354.94ZM914.329 1372.28L887.885 1374.58L903.726 1291.58C904.085 1289.91 904.205 1288.38 904.086 1287.01C904.08 1285.5 903.852 1284.32 903.401 1283.48C902.95 1282.64 901.974 1282.28 900.474 1282.41C898.348 1282.59 896.445 1283.89 894.766 1286.31C893.086 1288.72 891.479 1292.7 889.946 1298.25L887.213 1308.13L883.65 1308.44L887.475 1293.74C888.916 1288.58 890.83 1284.51 893.217 1281.53C895.603 1278.55 898.373 1276.36 901.526 1274.95C904.668 1273.42 907.865 1272.51 911.116 1272.23C915.367 1271.86 918.688 1272.39 921.08 1273.82C923.461 1275.12 925.14 1277.05 926.118 1279.61C927.097 1282.18 927.597 1285.03 927.618 1288.18C927.629 1291.2 927.389 1294.24 926.9 1297.31L914.329 1372.28ZM952.953 1290.51C953.393 1288.33 953.668 1286.42 953.777 1284.77C954 1282.99 953.88 1281.61 953.418 1280.64C952.956 1279.68 951.975 1279.26 950.475 1279.39C947.599 1279.64 944.688 1281.65 941.741 1285.44C938.784 1289.1 935.826 1294.2 932.868 1300.76C930.036 1307.3 927.306 1315.04 924.68 1323.96C922.054 1332.88 919.686 1342.59 917.576 1353.11L917.389 1340.08C921.196 1323 925.17 1309.3 929.313 1298.99C933.446 1288.55 938.197 1280.9 943.568 1276.02C948.94 1271.14 955.251 1268.39 962.503 1267.76C966.629 1267.4 969.82 1267.88 972.076 1269.2C974.456 1270.5 976.136 1272.43 977.114 1275C978.093 1277.56 978.541 1280.54 978.459 1283.95C978.502 1287.35 978.192 1291.03 977.529 1294.99L963.653 1368L936.834 1370.33L952.953 1290.51ZM1003.03 1286.16C1003.87 1282.81 1004.14 1280.08 1003.83 1277.97C1003.64 1275.84 1002.67 1274.85 1000.92 1275.01C998.549 1275.21 995.928 1276.95 993.063 1280.22C990.312 1283.36 987.447 1288.08 984.468 1294.39C981.478 1300.57 978.503 1308.38 975.546 1317.84C972.577 1327.16 969.749 1338.12 967.063 1350.7L966.558 1340.54C969.821 1325.89 973.045 1313.71 976.232 1303.98C979.543 1294.25 983.028 1286.51 986.687 1280.78C990.46 1274.91 994.499 1270.65 998.805 1268.01C1003.11 1265.37 1007.83 1263.82 1012.95 1263.38C1018.33 1262.91 1022.32 1263.89 1024.92 1266.31C1027.52 1268.6 1029 1271.87 1029.37 1276.12C1029.86 1280.36 1029.46 1285.19 1028.17 1290.59L1014.59 1347.51C1013.66 1351.25 1013.56 1353.77 1014.31 1355.1C1015.17 1356.28 1016.35 1356.81 1017.85 1356.68C1019.47 1356.54 1021.21 1355.5 1023.06 1353.58C1024.89 1351.53 1026.67 1347.28 1028.37 1340.84L1030.97 1331.54L1034.53 1331.23L1031.03 1345.33C1029.74 1350.73 1027.77 1354.93 1025.14 1357.93C1022.62 1360.92 1019.79 1363.06 1016.62 1364.34C1013.59 1365.74 1010.52 1366.57 1007.39 1366.85C1003.77 1367.16 1000.65 1366.8 998.039 1365.77C995.441 1364.86 993.361 1363.4 991.801 1361.4C989.959 1359.04 988.932 1355.91 988.72 1352.03C988.633 1348.13 989.242 1343.54 990.547 1338.26L1003.03 1286.16ZM1066.73 1318.04C1071.68 1315.59 1076.36 1312.92 1080.77 1310.02C1085.18 1307.12 1088.88 1304.02 1091.87 1300.74C1096.36 1295.94 1099.8 1290.54 1102.17 1284.54C1104.66 1278.4 1105.62 1271.96 1105.03 1265.2C1104.81 1262.7 1104.42 1261.1 1103.86 1260.39C1103.28 1259.56 1102.49 1259.19 1101.49 1259.28C1098.74 1259.52 1095.87 1261.21 1092.86 1264.37C1089.98 1267.39 1087.18 1271.42 1084.46 1276.44C1081.74 1281.34 1079.33 1286.9 1077.22 1293.13C1075.24 1299.35 1073.72 1305.78 1072.66 1312.42C1071.73 1319.05 1071.53 1325.43 1072.06 1331.56C1072.67 1338.56 1074.4 1343.26 1077.25 1345.66C1080.22 1347.92 1083.83 1348.87 1088.08 1348.5C1091.46 1348.2 1095.55 1346.71 1100.35 1344.03C1105.16 1341.34 1109.75 1336.91 1114.12 1330.74L1117.26 1331.98C1114.99 1336.33 1111.9 1340.63 1107.98 1344.88C1104.07 1349.12 1099.41 1352.74 1094 1355.73C1088.58 1358.59 1082.56 1360.31 1075.93 1360.89C1070.3 1361.38 1065.15 1360.82 1060.48 1359.21C1055.93 1357.59 1052.17 1354.96 1049.21 1351.31C1046.36 1347.52 1044.69 1342.76 1044.19 1337C1043.61 1330.38 1044.08 1323.47 1045.6 1316.29C1047.24 1309.09 1049.78 1302.07 1053.22 1295.22C1056.64 1288.24 1060.94 1281.88 1066.11 1276.14C1071.27 1270.28 1077.16 1265.55 1083.77 1261.95C1090.38 1258.23 1097.56 1256.03 1105.31 1255.35C1110.81 1254.88 1115.54 1255.73 1119.51 1257.9C1123.47 1259.95 1125.67 1263.47 1126.1 1268.48C1126.52 1273.35 1125.54 1278.04 1123.16 1282.53C1120.91 1287 1117.68 1291.19 1113.48 1295.08C1109.29 1298.97 1104.49 1302.54 1099.11 1305.78C1093.84 1309.01 1088.36 1311.88 1082.66 1314.39C1077.08 1316.89 1071.78 1318.92 1066.75 1320.49L1066.73 1318.04ZM1152.68 1313.97C1154.33 1304 1155.19 1294.29 1155.25 1284.84C1155.43 1275.25 1155.33 1266.13 1154.95 1257.47C1154.69 1248.67 1154.62 1240.55 1154.73 1233.11C1154.57 1229.85 1154.71 1226.43 1155.16 1222.87C1155.6 1219.3 1156.45 1216.02 1157.7 1213.01C1158.95 1210 1160.69 1207.52 1162.91 1205.57C1165.14 1203.61 1168.06 1202.47 1171.69 1202.16C1176.06 1201.78 1179.43 1202.81 1181.78 1205.25C1184.26 1207.68 1185.52 1211.29 1185.56 1216.07C1185.44 1222 1184.26 1228.65 1182 1236.03C1179.73 1243.28 1176.88 1251.09 1173.45 1259.45C1170.15 1267.8 1166.88 1276.59 1163.65 1285.81C1160.41 1294.91 1157.89 1304.39 1156.11 1314.24L1152.68 1313.97ZM1137.36 1344.22C1136.92 1339.21 1138.31 1334.87 1141.52 1331.19C1144.85 1327.5 1149.02 1325.44 1154.02 1325.01C1158.02 1324.66 1161.23 1325.39 1163.66 1327.19C1166.08 1329 1167.45 1331.71 1167.76 1335.34C1168.02 1338.34 1167.46 1341.29 1166.08 1344.18C1164.68 1346.94 1162.61 1349.27 1159.88 1351.14C1157.27 1353 1154.28 1354.08 1150.9 1354.38C1147.02 1354.71 1143.87 1353.98 1141.45 1352.17C1139.03 1350.37 1137.66 1347.72 1137.36 1344.22Z" fill="#F8C93D"/>
<path d="M596.307 1436.77L596.398 1437.73C595.46 1438.01 594.759 1438.41 594.295 1438.94C593.863 1439.46 593.616 1440.24 593.553 1441.28C593.488 1442.28 593.542 1443.69 593.715 1445.5L596.137 1470.93C595.653 1470.91 595.124 1470.93 594.551 1470.98C594.009 1471.03 593.423 1471.12 592.792 1471.24L569.421 1450.13L570.732 1463.89C570.935 1466.03 571.171 1467.66 571.439 1468.79C571.737 1469.89 572.244 1470.66 572.962 1471.11C573.708 1471.52 574.84 1471.76 576.359 1471.84L576.45 1472.8C575.807 1472.8 574.975 1472.84 573.956 1472.94C572.934 1473.01 571.976 1473.08 571.085 1473.17C570.384 1473.23 569.668 1473.32 568.939 1473.42C568.206 1473.49 567.604 1473.58 567.132 1473.69L567.041 1472.73C568.007 1472.42 568.708 1472.01 569.144 1471.52C569.576 1471 569.823 1470.22 569.885 1469.18C569.947 1468.15 569.894 1466.74 569.724 1464.95L567.784 1444.6C567.672 1443.42 567.511 1442.57 567.3 1442.04C567.086 1441.48 566.715 1441.13 566.187 1440.99C565.688 1440.81 564.959 1440.75 564 1440.81L563.909 1439.86C564.39 1439.84 564.998 1439.82 565.734 1439.78C566.47 1439.74 567.188 1439.69 567.889 1439.62C568.685 1439.55 569.464 1439.46 570.226 1439.35C570.987 1439.25 571.669 1439.15 572.271 1439.06L593.781 1457.84L592.707 1446.57C592.504 1444.43 592.254 1442.82 591.956 1441.72C591.688 1440.59 591.195 1439.8 590.477 1439.35C589.76 1438.91 588.627 1438.66 587.08 1438.61L586.989 1437.66C587.629 1437.63 588.46 1437.58 589.483 1437.52C590.505 1437.45 591.462 1437.38 592.354 1437.29C593.087 1437.22 593.802 1437.14 594.5 1437.04C595.23 1436.94 595.832 1436.85 596.307 1436.77ZM645.592 1432.08C645.616 1433.68 645.668 1435.24 645.747 1436.74C645.855 1438.21 645.946 1439.34 646.022 1440.14C646.086 1440.81 646.163 1441.44 646.252 1442.04C646.342 1442.65 646.422 1443.15 646.493 1443.56L645.394 1443.67C644.76 1441.06 643.926 1439.05 642.891 1437.64C641.854 1436.2 640.701 1435.23 639.432 1434.74C638.193 1434.21 636.92 1434.01 635.614 1434.14L634.993 1434.2C634.165 1434.28 633.551 1434.41 633.152 1434.61C632.75 1434.78 632.489 1435.08 632.37 1435.51C632.282 1435.93 632.28 1436.59 632.365 1437.48L634.805 1463.1C634.887 1463.96 635.013 1464.6 635.183 1465.04C635.381 1465.44 635.695 1465.7 636.125 1465.82C636.551 1465.9 637.178 1465.91 638.007 1465.83L639.583 1465.68C640.635 1465.58 641.702 1465.14 642.785 1464.36C643.897 1463.55 644.868 1462.27 645.697 1460.52C646.527 1458.77 647.06 1456.43 647.297 1453.52L648.396 1453.41C648.41 1454.57 648.501 1456.04 648.671 1457.82C648.747 1458.62 648.872 1459.76 649.047 1461.26C649.218 1462.72 649.459 1464.24 649.771 1465.82C648.14 1465.91 646.305 1466.05 644.266 1466.25C642.224 1466.41 640.407 1466.57 638.814 1466.72C637.954 1466.8 636.855 1466.9 635.517 1467.03C634.211 1467.16 632.779 1467.31 631.221 1467.49C629.692 1467.63 628.133 1467.8 626.543 1467.98C624.982 1468.13 623.502 1468.29 622.104 1468.45L622.013 1467.5C622.994 1467.34 623.715 1467.14 624.174 1466.91C624.634 1466.67 624.916 1466.26 625.021 1465.67C625.125 1465.08 625.123 1464.21 625.014 1463.06L622.756 1439.36C622.644 1438.19 622.482 1437.33 622.271 1436.81C622.057 1436.25 621.686 1435.9 621.159 1435.76C620.659 1435.58 619.931 1435.52 618.972 1435.58L618.881 1434.62C620.285 1434.52 621.77 1434.41 623.334 1434.29C624.927 1434.14 626.489 1434.01 628.021 1433.9C629.582 1433.75 631.016 1433.61 632.322 1433.49C633.66 1433.36 634.759 1433.25 635.619 1433.17C637.084 1433.03 638.741 1432.88 640.588 1432.7C642.465 1432.49 644.133 1432.28 645.592 1432.08ZM640.22 1449.08C640.22 1449.08 640.235 1449.24 640.266 1449.56C640.296 1449.88 640.311 1450.04 640.311 1450.04L632.188 1450.81C632.188 1450.81 632.173 1450.65 632.142 1450.33C632.112 1450.01 632.097 1449.85 632.097 1449.85L640.22 1449.08ZM641.005 1442.64C641.051 1444.47 641.119 1445.86 641.21 1446.82C641.333 1447.77 641.432 1448.64 641.508 1449.44C641.584 1450.24 641.683 1451.11 641.806 1452.06C641.929 1453.02 642.141 1454.39 642.441 1456.2L641.342 1456.3C641.039 1455.14 640.539 1454.11 639.842 1453.21C639.178 1452.31 638.358 1451.64 637.383 1451.18C636.404 1450.7 635.31 1450.51 634.099 1450.63L634.008 1449.67C634.9 1449.59 635.694 1449.32 636.391 1448.87C637.087 1448.41 637.675 1447.84 638.156 1447.16C638.669 1446.46 639.066 1445.73 639.346 1444.97C639.659 1444.2 639.845 1443.46 639.906 1442.75L641.005 1442.64ZM716.681 1425.31L716.772 1426.26C716.073 1426.68 715.373 1427.44 714.674 1428.54C713.975 1429.63 713.405 1431.25 712.965 1433.38L707.432 1460.33C707.047 1460.33 706.631 1460.36 706.185 1460.4C705.768 1460.41 705.336 1460.43 704.89 1460.47C704.476 1460.51 704.048 1460.57 703.605 1460.64C703.191 1460.68 702.794 1460.74 702.415 1460.8L689.462 1431.13C689.129 1430.33 688.739 1429.79 688.295 1429.51C687.851 1429.23 687.356 1429.1 686.811 1429.12L686.72 1428.16C687.807 1428.09 689.084 1428 690.552 1427.89C692.021 1427.79 693.503 1427.66 695.001 1427.52C696.498 1427.38 697.898 1427.23 699.201 1427.07C700.536 1426.91 701.6 1426.78 702.393 1426.67L702.485 1427.62C701.5 1427.75 700.748 1427.95 700.227 1428.23C699.704 1428.47 699.422 1428.88 699.381 1429.46C699.369 1430.01 699.607 1430.82 700.095 1431.9L708.535 1451.16L707.427 1454.2L710.783 1438.31C711.405 1435.39 711.623 1433.12 711.436 1431.5C711.246 1429.84 710.752 1428.7 709.952 1428.07C709.15 1427.41 708.11 1427.12 706.833 1427.21L706.742 1426.26C707.955 1426.17 709.026 1426.1 709.952 1426.05C710.911 1425.99 711.932 1425.91 713.015 1425.8C713.652 1425.74 714.304 1425.66 714.97 1425.57C715.636 1425.47 716.206 1425.39 716.681 1425.31ZM682.133 1428.6L682.224 1429.55C681.692 1429.7 681.353 1430.02 681.207 1430.52C681.09 1430.98 681.093 1431.51 681.214 1432.11C681.364 1432.67 681.542 1433.19 681.746 1433.65L690.896 1453.27L689.754 1455.45L694.009 1439.38L694.81 1440.7L689.465 1462.04C689.08 1462.04 688.664 1462.07 688.218 1462.11C687.801 1462.12 687.37 1462.14 686.924 1462.18C686.51 1462.22 686.081 1462.28 685.638 1462.35C685.224 1462.39 684.827 1462.45 684.448 1462.52L670.522 1433.75C670.001 1432.68 669.465 1431.94 668.913 1431.55C668.361 1431.15 667.86 1430.95 667.411 1430.96L667.32 1430.01C668.47 1429.93 669.811 1429.84 671.343 1429.72C672.907 1429.61 674.39 1429.48 675.792 1429.35C677.193 1429.21 678.434 1429.08 679.514 1428.94C680.594 1428.81 681.467 1428.69 682.133 1428.6ZM811.839 1416.25L811.93 1417.2C810.977 1417.33 810.256 1417.52 809.768 1417.79C809.308 1418.03 809.026 1418.44 808.922 1419.03C808.814 1419.59 808.816 1420.46 808.928 1421.64L811.186 1445.34C811.296 1446.48 811.457 1447.34 811.671 1447.89C811.917 1448.45 812.288 1448.8 812.784 1448.94C813.28 1449.09 814.009 1449.15 814.97 1449.12L815.061 1450.08C814.068 1450.11 812.807 1450.2 811.277 1450.34C809.745 1450.46 808.183 1450.59 806.59 1450.74C804.87 1450.9 803.247 1451.07 801.721 1451.25C800.223 1451.39 799.016 1451.54 798.098 1451.69L798.007 1450.74C799.084 1450.57 799.884 1450.37 800.408 1450.12C800.963 1449.88 801.309 1449.46 801.445 1448.87C801.582 1448.28 801.595 1447.41 801.486 1446.26L799.051 1420.7L799.52 1420.55L790.448 1452.37L789.684 1452.45L773.286 1423.05L775.321 1444.41C775.524 1446.55 775.76 1448.18 776.029 1449.31C776.326 1450.41 776.834 1451.18 777.551 1451.62C778.297 1452.04 779.43 1452.28 780.948 1452.36L781.039 1453.32C780.396 1453.31 779.565 1453.36 778.546 1453.46C777.523 1453.52 776.566 1453.6 775.674 1453.68C774.973 1453.75 774.258 1453.83 773.528 1453.94C772.796 1454.01 772.193 1454.1 771.722 1454.21L771.631 1453.25C772.597 1452.93 773.298 1452.53 773.733 1452.04C774.165 1451.51 774.413 1450.73 774.475 1449.7C774.537 1448.67 774.483 1447.26 774.313 1445.47L772.374 1425.12C772.262 1423.94 772.1 1423.08 771.889 1422.56C771.675 1422 771.304 1421.65 770.776 1421.51C770.277 1421.33 769.548 1421.27 768.59 1421.33L768.499 1420.37C768.98 1420.36 769.588 1420.33 770.324 1420.3C771.059 1420.26 771.778 1420.21 772.478 1420.14C774.326 1419.96 776.093 1419.78 777.778 1419.59C779.463 1419.39 780.989 1419.22 782.356 1419.05L793.847 1439.47L792.564 1441.18L799.237 1417.59C799.874 1417.53 800.559 1417.47 801.292 1417.4C802.025 1417.33 802.726 1417.26 803.395 1417.2C804.987 1417.04 806.547 1416.88 808.073 1416.7C809.599 1416.52 810.854 1416.37 811.839 1416.25ZM861.287 1411.54C861.312 1413.14 861.363 1414.7 861.442 1416.2C861.55 1417.67 861.642 1418.8 861.718 1419.6C861.781 1420.27 861.858 1420.9 861.948 1421.5C862.037 1422.11 862.117 1422.61 862.189 1423.02L861.09 1423.13C860.456 1420.52 859.621 1418.51 858.587 1417.1C857.549 1415.66 856.396 1414.69 855.128 1414.2C853.889 1413.67 852.616 1413.47 851.31 1413.6L850.689 1413.66C849.86 1413.74 849.247 1413.87 848.848 1414.07C848.446 1414.24 848.185 1414.54 848.065 1414.97C847.977 1415.39 847.975 1416.05 848.06 1416.94L850.5 1442.56C850.582 1443.42 850.708 1444.06 850.878 1444.5C851.077 1444.9 851.391 1445.16 851.82 1445.28C852.246 1445.36 852.874 1445.37 853.702 1445.29L855.279 1445.14C856.33 1445.04 857.397 1444.6 858.48 1443.82C859.592 1443.01 860.563 1441.73 861.393 1439.98C862.223 1438.23 862.756 1435.89 862.992 1432.98L864.091 1432.87C864.105 1434.03 864.197 1435.5 864.367 1437.28C864.443 1438.08 864.568 1439.22 864.742 1440.72C864.914 1442.18 865.155 1443.7 865.466 1445.28C863.835 1445.37 862 1445.51 859.962 1445.71C857.92 1445.87 856.103 1446.02 854.51 1446.18C853.65 1446.26 852.551 1446.36 851.213 1446.49C849.907 1446.61 848.475 1446.77 846.917 1446.95C845.388 1447.09 843.828 1447.26 842.238 1447.44C840.678 1447.59 839.198 1447.75 837.799 1447.91L837.708 1446.96C838.69 1446.8 839.41 1446.6 839.87 1446.37C840.329 1446.13 840.611 1445.72 840.716 1445.13C840.821 1444.54 840.818 1443.67 840.709 1442.52L838.451 1418.82C838.339 1417.65 838.178 1416.79 837.967 1416.27C837.753 1415.71 837.382 1415.36 836.854 1415.21C836.355 1415.04 835.626 1414.98 834.667 1415.04L834.576 1414.08C835.981 1413.98 837.465 1413.87 839.029 1413.75C840.622 1413.6 842.184 1413.47 843.717 1413.36C845.278 1413.21 846.711 1413.07 848.017 1412.95C849.355 1412.82 850.454 1412.71 851.314 1412.63C852.78 1412.49 854.436 1412.34 856.284 1412.16C858.16 1411.95 859.828 1411.74 861.287 1411.54ZM855.916 1428.54C855.916 1428.54 855.931 1428.7 855.961 1429.02C855.991 1429.34 856.007 1429.5 856.007 1429.5L847.883 1430.27C847.883 1430.27 847.868 1430.11 847.838 1429.79C847.807 1429.47 847.792 1429.31 847.792 1429.31L855.916 1428.54ZM856.7 1422.1C856.746 1423.93 856.814 1425.32 856.905 1426.28C857.028 1427.23 857.128 1428.1 857.203 1428.9C857.279 1429.7 857.379 1430.57 857.502 1431.52C857.624 1432.48 857.836 1433.85 858.137 1435.66L857.038 1435.76C856.734 1434.6 856.234 1433.57 855.538 1432.67C854.873 1431.77 854.054 1431.1 853.078 1430.64C852.1 1430.16 851.005 1429.97 849.795 1430.09L849.704 1429.13C850.596 1429.05 851.39 1428.78 852.086 1428.33C852.782 1427.87 853.371 1427.3 853.852 1426.61C854.364 1425.92 854.761 1425.19 855.042 1424.43C855.354 1423.66 855.541 1422.92 855.601 1422.21L856.7 1422.1ZM918.217 1406.12L918.308 1407.07C917.37 1407.35 916.669 1407.76 916.205 1408.29C915.773 1408.81 915.526 1409.59 915.463 1410.62C915.398 1411.62 915.452 1413.03 915.625 1414.85L918.047 1440.27C917.563 1440.25 917.034 1440.27 916.461 1440.33C915.919 1440.38 915.333 1440.46 914.702 1440.59L891.331 1419.48L892.642 1433.24C892.845 1435.37 893.081 1437.01 893.349 1438.14C893.647 1439.24 894.154 1440.01 894.872 1440.45C895.618 1440.86 896.75 1441.11 898.269 1441.19L898.36 1442.15C897.717 1442.14 896.885 1442.19 895.866 1442.29C894.844 1442.35 893.886 1442.43 892.994 1442.51C892.294 1442.58 891.578 1442.66 890.849 1442.76C890.116 1442.83 889.514 1442.92 889.042 1443.03L888.951 1442.08C889.917 1441.76 890.618 1441.36 891.053 1440.86C891.486 1440.34 891.733 1439.56 891.795 1438.53C891.857 1437.49 891.803 1436.08 891.634 1434.3L889.694 1413.94C889.582 1412.77 889.42 1411.91 889.21 1411.39C888.996 1410.83 888.625 1410.48 888.097 1410.34C887.598 1410.16 886.869 1410.1 885.91 1410.16L885.819 1409.2C886.3 1409.19 886.908 1409.16 887.644 1409.12C888.38 1409.09 889.098 1409.03 889.799 1408.97C890.595 1408.89 891.374 1408.8 892.136 1408.7C892.897 1408.59 893.579 1408.5 894.181 1408.41L915.691 1427.19L914.617 1415.91C914.414 1413.78 914.163 1412.16 913.866 1411.06C913.598 1409.93 913.105 1409.14 912.387 1408.7C911.669 1408.25 910.537 1408.01 908.99 1407.96L908.899 1407C909.539 1406.98 910.37 1406.93 911.393 1406.86C912.415 1406.8 913.372 1406.72 914.264 1406.64C914.997 1406.57 915.712 1406.48 916.41 1406.39C917.14 1406.28 917.742 1406.19 918.217 1406.12ZM971.994 1401L972.085 1401.95C971.147 1402.23 970.446 1402.64 969.982 1403.16C969.55 1403.69 969.303 1404.47 969.24 1405.5C969.175 1406.5 969.229 1407.91 969.402 1409.73L970.499 1421.24C970.687 1423.22 970.721 1425.1 970.602 1426.88C970.514 1428.65 970.148 1430.21 969.505 1431.56C968.807 1433.01 967.668 1434.21 966.087 1435.17C964.539 1436.12 962.394 1436.72 959.655 1436.98C958.189 1437.12 956.629 1437.11 954.974 1436.95C953.319 1436.78 951.812 1436.32 950.453 1435.55C949.294 1434.85 948.373 1433.96 947.691 1432.87C947.008 1431.77 946.498 1430.47 946.161 1428.96C945.825 1427.45 945.564 1425.72 945.379 1423.78L943.949 1408.78C943.837 1407.6 943.675 1406.75 943.464 1406.22C943.251 1405.66 942.896 1405.31 942.399 1405.16C941.9 1404.99 941.156 1404.93 940.165 1404.99L940.074 1404.04C941.001 1403.98 942.214 1403.9 943.715 1403.79C945.247 1403.67 946.841 1403.54 948.498 1403.38C950.154 1403.22 951.745 1403.05 953.271 1402.88C954.797 1402.7 956.053 1402.55 957.037 1402.42L957.128 1403.38C956.048 1403.51 955.232 1403.72 954.68 1403.99C954.157 1404.24 953.827 1404.65 953.69 1405.25C953.551 1405.81 953.537 1406.67 953.649 1407.85L955.507 1427.35C955.655 1428.91 955.909 1430.22 956.267 1431.28C956.622 1432.31 957.068 1433.12 957.607 1433.71C958.177 1434.3 958.842 1434.7 959.602 1434.92C960.391 1435.1 961.279 1435.14 962.267 1435.05C964.401 1434.84 966.025 1434.17 967.139 1433.04C968.249 1431.87 968.971 1430.34 969.305 1428.45C969.635 1426.52 969.684 1424.33 969.45 1421.87L968.394 1410.79C968.191 1408.65 967.94 1407.04 967.643 1405.94C967.375 1404.81 966.882 1404.02 966.164 1403.58C965.446 1403.13 964.314 1402.88 962.767 1402.84L962.676 1401.88C963.316 1401.85 964.147 1401.81 965.17 1401.74C966.192 1401.68 967.149 1401.6 968.041 1401.52C968.774 1401.45 969.489 1401.36 970.187 1401.26C970.917 1401.16 971.519 1401.07 971.994 1401Z" fill="#FFFBF1"/>
<rect x="74.5" y="1593.5" width="334" height="130" rx="13.5" fill="#F8C93D"/>
<path d="M120.928 1627.03C133.536 1627.03 142.912 1629.91 149.056 1635.67C155.2 1641.37 158.272 1649.56 158.272 1660.25C158.272 1667.22 156.768 1673.34 153.76 1678.58C150.752 1683.77 146.368 1687.8 140.608 1690.68C134.912 1693.56 128.064 1695 120.064 1695C119.04 1695 117.696 1694.97 116.032 1694.9C114.368 1694.84 112.64 1694.81 110.848 1694.81C109.056 1694.74 107.456 1694.71 106.048 1694.71C103.232 1694.71 100.448 1694.74 97.696 1694.81C95.008 1694.81 92.864 1694.87 91.264 1695V1693.08C93.312 1692.95 94.848 1692.7 95.872 1692.31C96.896 1691.93 97.568 1691.16 97.888 1690.01C98.272 1688.86 98.464 1687.13 98.464 1684.82V1637.21C98.464 1634.84 98.272 1633.11 97.888 1632.02C97.568 1630.87 96.864 1630.1 95.776 1629.72C94.752 1629.27 93.248 1629.02 91.264 1628.95V1627.03C92.864 1627.1 95.008 1627.19 97.696 1627.32C100.448 1627.38 103.168 1627.38 105.856 1627.32C108.16 1627.26 110.752 1627.19 113.632 1627.13C116.576 1627.06 119.008 1627.03 120.928 1627.03ZM120.832 1628.76C117.888 1628.76 115.968 1629.3 115.072 1630.39C114.176 1631.48 113.728 1633.69 113.728 1637.02V1685.02C113.728 1688.34 114.176 1690.55 115.072 1691.64C116.032 1692.73 117.984 1693.27 120.928 1693.27C126.304 1693.27 130.528 1692.02 133.6 1689.53C136.736 1686.97 138.976 1683.26 140.32 1678.39C141.664 1673.53 142.336 1667.61 142.336 1660.63C142.336 1653.46 141.6 1647.54 140.128 1642.87C138.72 1638.14 136.448 1634.62 133.312 1632.31C130.176 1629.94 126.016 1628.76 120.832 1628.76ZM194.616 1627.03V1628.95C192.568 1629.02 191 1629.27 189.911 1629.72C188.888 1630.1 188.216 1630.87 187.896 1632.02C187.576 1633.11 187.416 1634.84 187.416 1637.21V1684.82C187.416 1687.13 187.576 1688.86 187.896 1690.01C188.28 1691.16 188.984 1691.93 190.008 1692.31C191.032 1692.7 192.568 1692.95 194.616 1693.08V1695C192.888 1694.87 190.712 1694.81 188.088 1694.81C185.464 1694.74 182.808 1694.71 180.12 1694.71C176.984 1694.71 174.072 1694.74 171.384 1694.81C168.76 1694.81 166.616 1694.87 164.952 1695V1693.08C167 1692.95 168.536 1692.7 169.56 1692.31C170.584 1691.93 171.256 1691.16 171.576 1690.01C171.96 1688.86 172.152 1687.13 172.152 1684.82V1637.21C172.152 1634.84 171.96 1633.11 171.576 1632.02C171.256 1630.87 170.552 1630.1 169.464 1629.72C168.44 1629.27 166.936 1629.02 164.952 1628.95V1627.03C166.616 1627.1 168.76 1627.16 171.384 1627.22C174.072 1627.29 176.984 1627.32 180.12 1627.32C182.808 1627.32 185.464 1627.29 188.088 1627.22C190.712 1627.16 192.888 1627.1 194.616 1627.03ZM264.309 1627.03V1628.95C262.261 1629.21 260.725 1629.75 259.701 1630.58C258.677 1631.35 257.973 1632.6 257.589 1634.33C257.269 1636.06 257.109 1638.49 257.109 1641.62V1695.19C256.341 1695.13 255.541 1695.1 254.709 1695.1C253.941 1695.1 253.109 1695.13 252.213 1695.19L210.549 1642.39V1679.26C210.549 1682.78 210.741 1685.5 211.125 1687.42C211.509 1689.27 212.341 1690.62 213.621 1691.45C214.965 1692.22 217.045 1692.76 219.861 1693.08V1695C218.645 1694.87 217.045 1694.81 215.061 1694.81C213.077 1694.74 211.221 1694.71 209.493 1694.71C208.021 1694.71 206.517 1694.74 204.981 1694.81C203.445 1694.81 202.165 1694.87 201.141 1695V1693.08C203.189 1692.76 204.725 1692.22 205.749 1691.45C206.773 1690.68 207.445 1689.43 207.765 1687.7C208.149 1685.91 208.341 1683.48 208.341 1680.41V1637.21C208.341 1634.84 208.149 1633.11 207.765 1632.02C207.445 1630.87 206.741 1630.1 205.653 1629.72C204.629 1629.27 203.125 1629.02 201.141 1628.95V1627.03C202.165 1627.1 203.445 1627.16 204.981 1627.22C206.517 1627.29 208.021 1627.32 209.493 1627.32C211.029 1627.32 212.501 1627.29 213.909 1627.22C215.317 1627.16 216.597 1627.1 217.749 1627.03L254.901 1672.82V1642.78C254.901 1639.26 254.709 1636.57 254.325 1634.71C253.941 1632.79 253.077 1631.42 251.733 1630.58C250.453 1629.75 248.405 1629.21 245.589 1628.95V1627.03C246.805 1627.1 248.405 1627.16 250.389 1627.22C252.373 1627.29 254.229 1627.32 255.957 1627.32C257.493 1627.32 258.997 1627.29 260.469 1627.22C262.005 1627.16 263.285 1627.1 264.309 1627.03ZM321.687 1627.03C321.431 1629.85 321.239 1632.57 321.111 1635.19C321.047 1637.82 321.015 1639.83 321.015 1641.24C321.015 1642.52 321.047 1643.74 321.111 1644.89C321.175 1646.04 321.239 1647 321.302 1647.77H319.095C318.455 1643.1 317.463 1639.42 316.119 1636.73C314.775 1633.98 313.015 1632.06 310.839 1630.97C308.727 1629.82 306.231 1629.24 303.351 1629.24H299.415C297.559 1629.24 296.151 1629.4 295.191 1629.72C294.231 1630.04 293.591 1630.68 293.271 1631.64C292.951 1632.6 292.791 1634.07 292.791 1636.06V1685.98C292.791 1687.96 292.951 1689.43 293.271 1690.39C293.591 1691.35 294.231 1691.99 295.191 1692.31C296.151 1692.63 297.559 1692.79 299.415 1692.79H304.119C306.999 1692.79 309.527 1692.18 311.703 1690.97C313.943 1689.69 315.831 1687.54 317.367 1684.54C318.967 1681.53 320.183 1677.46 321.015 1672.34H323.223C323.031 1674.39 322.935 1677.08 322.935 1680.41C322.935 1681.88 322.967 1683.96 323.031 1686.65C323.095 1689.34 323.287 1692.12 323.607 1695C320.343 1694.87 316.663 1694.81 312.567 1694.81C308.471 1694.74 304.823 1694.71 301.623 1694.71C300.023 1694.71 297.975 1694.71 295.479 1694.71C292.983 1694.71 290.295 1694.74 287.415 1694.81C284.535 1694.81 281.623 1694.84 278.679 1694.9C275.735 1694.9 272.951 1694.94 270.327 1695V1693.08C272.375 1692.95 273.911 1692.7 274.935 1692.31C275.959 1691.93 276.631 1691.16 276.951 1690.01C277.335 1688.86 277.527 1687.13 277.527 1684.82V1637.21C277.527 1634.84 277.335 1633.11 276.951 1632.02C276.631 1630.87 275.927 1630.1 274.839 1629.72C273.815 1629.27 272.311 1629.02 270.327 1628.95V1627.03C272.951 1627.1 275.735 1627.16 278.679 1627.22C281.623 1627.22 284.535 1627.26 287.415 1627.32C290.295 1627.32 292.983 1627.32 295.479 1627.32C297.975 1627.32 300.023 1627.32 301.623 1627.32C304.567 1627.32 307.895 1627.32 311.607 1627.32C315.383 1627.26 318.743 1627.16 321.687 1627.03ZM306.711 1659.86C306.711 1659.86 306.711 1660.18 306.711 1660.82C306.711 1661.46 306.711 1661.78 306.711 1661.78H289.911C289.911 1661.78 289.911 1661.46 289.911 1660.82C289.911 1660.18 289.911 1659.86 289.911 1659.86H306.711ZM309.495 1647.19C309.239 1650.84 309.111 1653.62 309.111 1655.54C309.175 1657.46 309.207 1659.22 309.207 1660.82C309.207 1662.42 309.239 1664.18 309.303 1666.1C309.367 1668.02 309.527 1670.81 309.783 1674.46H307.575C307.255 1672.22 306.647 1670.14 305.751 1668.22C304.919 1666.3 303.703 1664.76 302.103 1663.61C300.503 1662.39 298.423 1661.78 295.863 1661.78V1659.86C297.783 1659.86 299.415 1659.48 300.759 1658.71C302.103 1657.88 303.191 1656.82 304.023 1655.54C304.919 1654.2 305.623 1652.79 306.135 1651.32C306.647 1649.85 307.031 1648.47 307.287 1647.19H309.495ZM331.17 1627.03C332.77 1627.1 334.914 1627.16 337.602 1627.22C340.354 1627.29 343.074 1627.32 345.762 1627.32C348.834 1627.32 351.81 1627.29 354.69 1627.22C357.57 1627.16 359.618 1627.13 360.834 1627.13C366.786 1627.13 371.714 1627.8 375.618 1629.14C379.586 1630.42 382.53 1632.31 384.45 1634.81C386.434 1637.3 387.426 1640.31 387.426 1643.83C387.426 1646.01 386.978 1648.22 386.082 1650.46C385.186 1652.63 383.65 1654.68 381.474 1656.6C379.362 1658.46 376.45 1659.96 372.738 1661.11C369.026 1662.2 364.354 1662.74 358.722 1662.74H349.506V1660.82H357.762C361.538 1660.82 364.386 1660.12 366.306 1658.71C368.29 1657.24 369.634 1655.32 370.338 1652.95C371.106 1650.52 371.49 1647.83 371.49 1644.89C371.49 1639.83 370.594 1635.93 368.802 1633.18C367.01 1630.36 363.938 1628.95 359.586 1628.95C357.09 1628.95 355.458 1629.5 354.69 1630.58C353.986 1631.67 353.634 1633.88 353.634 1637.21V1684.82C353.634 1687.13 353.794 1688.86 354.114 1690.01C354.498 1691.16 355.202 1691.93 356.226 1692.31C357.25 1692.7 358.786 1692.95 360.834 1693.08V1695C359.106 1694.87 356.93 1694.81 354.306 1694.81C351.682 1694.74 349.026 1694.71 346.338 1694.71C343.266 1694.71 340.354 1694.74 337.602 1694.81C334.914 1694.81 332.77 1694.87 331.17 1695V1693.08C333.218 1692.95 334.754 1692.7 335.778 1692.31C336.802 1691.93 337.474 1691.16 337.794 1690.01C338.178 1688.86 338.37 1687.13 338.37 1684.82V1637.21C338.37 1634.84 338.178 1633.11 337.794 1632.02C337.474 1630.87 336.77 1630.1 335.682 1629.72C334.658 1629.27 333.154 1629.02 331.17 1628.95V1627.03ZM349.314 1661.11C352.066 1661.18 354.434 1661.3 356.418 1661.5C358.466 1661.69 360.258 1661.88 361.794 1662.07C363.33 1662.2 364.706 1662.3 365.922 1662.36C371.746 1662.87 376.034 1664.12 378.786 1666.1C381.602 1668.09 383.426 1671.06 384.258 1675.03L386.466 1684.92C387.042 1687.48 387.65 1689.27 388.29 1690.3C388.93 1691.32 389.858 1691.83 391.074 1691.83C391.906 1691.77 392.578 1691.58 393.09 1691.26C393.666 1690.87 394.274 1690.33 394.914 1689.62L396.258 1690.78C394.53 1692.76 392.674 1694.17 390.69 1695C388.706 1695.9 386.306 1696.34 383.49 1696.34C380.034 1696.34 377.186 1695.61 374.946 1694.14C372.706 1692.66 371.234 1689.94 370.53 1685.98L368.802 1676.38C368.354 1673.69 367.81 1671.35 367.17 1669.37C366.53 1667.32 365.634 1665.72 364.482 1664.57C363.394 1663.35 361.858 1662.74 359.874 1662.74H349.506L349.314 1661.11Z" fill="#A01789"/>
<rect x="74.5" y="1593.5" width="334" height="130" rx="13.5" stroke="#A01789" stroke-width="13"/>
<path d="M787 1743C787 1731.95 795.954 1723 807 1723H1440V2076H787V1743Z" fill="#FFFBF1"/>
<rect x="867" y="1898" width="91" height="159" fill="#EC2C5D"/>
<rect x="1054" y="1898" width="91" height="96" fill="#96CFED"/>
<rect x="1054" y="1898" width="91" height="19" fill="#5CB5E3"/>
<rect x="1054" y="2011" width="91" height="19" fill="#DBDBDB"/>
<rect x="1224" y="2011" width="91" height="19" fill="#DBDBDB"/>
<rect x="1394" y="2011" width="91" height="19" fill="#DBDBDB"/>
<rect x="1224" y="1898" width="91" height="96" fill="#96CFED"/>
<rect x="1394" y="1899" width="91" height="96" fill="#96CFED"/>
<rect x="867" y="1898" width="91" height="19" fill="#A01789"/>
<rect x="787" y="1739" width="665" height="19" fill="#DBDBDB"/>
<rect x="1224" y="1898" width="91" height="19" fill="#5CB5E3"/>
<rect x="1394" y="1899" width="91" height="19" fill="#5CB5E3"/>
<rect x="277" y="2015" width="33" height="50" rx="10" fill="#59194F"/>
<rect x="447" y="2015" width="33" height="50" rx="10" fill="#59194F"/>
<path d="M265 1942.86C265 1939.29 267.893 1936.39 271.462 1936.39V1936.39C274.534 1936.39 277.182 1934.23 277.794 1931.22L288.419 1879.01C289.367 1874.35 293.464 1871 298.218 1871H378.5H456.715C461.341 1871 465.363 1874.17 466.44 1878.67L479.053 1931.36C479.76 1934.31 482.4 1936.39 485.436 1936.39V1936.39C489.061 1936.39 492 1939.33 492 1942.96V2017C492 2022.52 487.523 2027 482 2027H275C269.477 2027 265 2022.52 265 2017V1942.86Z" fill="url(#paint1_linear_191_32)"/>
<path d="M293.277 1886.94C294.251 1882.31 298.333 1879 303.062 1879H451.976C456.548 1879 460.537 1882.1 461.666 1886.53L469.822 1918.53C471.433 1924.85 466.656 1931 460.132 1931H296.325C289.973 1931 285.231 1925.16 286.539 1918.94L293.277 1886.94Z" fill="#5CB5E3"/>
<rect x="308" y="1955" width="142" height="8" rx="4" fill="#DBDBDB"/>
<rect x="460" y="1955" width="21" height="38" rx="10" fill="#E9A92F"/>
<rect x="277" y="1955" width="21" height="38" rx="10" fill="#E9A92F"/>
<rect x="308" y="1970" width="142" height="8" rx="4" fill="#DBDBDB"/>
<rect x="308" y="1985" width="142" height="8" rx="4" fill="#DBDBDB"/>
<rect x="308" y="1999" width="142" height="8" rx="4" fill="#DBDBDB"/>
<ellipse cx="85" cy="2001" rx="43" ry="67" fill="#8DA017"/>
<circle cx="117" cy="2053" r="67" fill="#A08217"/>
<circle cx="61" cy="2058" r="67" fill="#8DA017"/>
<path d="M507 531L330 384" stroke="#CC2470" stroke-width="5"/>
<path d="M349 346L535 289" stroke="#CC2470" stroke-width="5"/>
<path d="M920.09 588.21L919.988 588.188L919.885 588.176L500.4 536.915L531.424 282.961L950.842 334.213L1162.57 371.791L1162.74 371.821L1162.91 371.828L1373.49 379.811L1343.08 632.063L1131.2 632.054L920.09 588.21Z" fill="#F8C93D" stroke="#E12964" stroke-width="5"/>
<path d="M118.519 317.806L209.835 341.644L294.946 366.61L319.655 349.796L326.143 335.553L360.602 339.419L336.75 394.009L320.596 392.907L199.541 381.089L108.225 357.251L93.6192 336.769L97.7816 320.819L106.773 318.22L118.519 317.806Z" fill="#E12964"/>
<rect width="5" height="77" transform="matrix(0.967575 0.252584 -0.252513 0.967593 84.001 286)" fill="#E12964"/>
<rect width="12" height="34" transform="matrix(0.967575 0.252584 -0.252513 0.967593 88 309)" fill="#E12964"/>
<rect width="6" height="11" transform="matrix(0.967575 0.252584 -0.252513 0.967593 80 320)" fill="#E12964"/>
<rect width="9" height="34" transform="matrix(0.939601 0.34227 -0.345883 0.938278 137 350)" fill="#E12964"/>
<circle cx="12" cy="12" r="12" transform="matrix(0.967575 0.252584 -0.252513 0.967593 119 372)" fill="#E12964"/>
<path d="M131.265 291.815L129.475 298.676L184.627 313.073L186.188 307.092L161.564 296.718L138.57 290.715L131.265 291.815Z" fill="#E12964"/>
<rect width="3" height="25" transform="matrix(0.967575 0.252584 -0.252513 0.967593 164 305)" fill="#E12964"/>
<rect width="3" height="25" transform="matrix(0.967575 0.252584 -0.252513 0.967593 138 300)" fill="#E12964"/>
<rect width="3" height="32" transform="matrix(0.964998 -0.262258 0.267907 0.963445 165 307)" fill="#E12964"/>
<rect width="3" height="32" transform="matrix(0.964998 -0.262258 0.267907 0.963445 139 301)" fill="#E12964"/>
<rect width="3" height="32" transform="matrix(-0.713704 -0.700447 -0.704565 0.70964 166 308)" fill="#E12964"/>
<defs>
<linearGradient id="paint0_linear_191_32" x1="717.5" y1="-37" x2="717.5" y2="2037" gradientUnits="userSpaceOnUse">
<stop stop-color="#A01789"/>
<stop offset="1" stop-color="#EC2C5D"/>
</linearGradient>
<linearGradient id="paint1_linear_191_32" x1="378.5" y1="1861.49" x2="378.5" y2="2027" gradientUnits="userSpaceOnUse">
<stop offset="0.583014" stop-color="#A01789"/>
<stop offset="0.583311" stop-color="#EC2C5D"/>
</linearGradient>
</defs>
</svg>
