<svg width="1440" height="1379" viewBox="0 0 1440 1379" fill="none" xmlns="http://www.w3.org/2000/svg">
<path fill-rule="evenodd" clip-rule="evenodd" d="M1548.68 1134C1574.23 1051.87 1588 964.542 1588 874C1588 391.303 1196.7 0 714 0C231.303 0 -160 391.303 -160 874C-160 1061.78 -100.781 1235.73 0 1378.19V1134H1548.68Z" fill="#A01789"/>
<ellipse cx="393.5" cy="474.5" rx="224.5" ry="224.5" fill="#281C64"/>
<path d="M300.874 354.053L382.654 564.73C385.795 572.807 389.273 578.416 393.087 581.557C397.126 584.474 400.716 586.045 403.857 586.269V593C397.126 592.551 389.161 592.327 379.962 592.327C370.987 592.103 361.901 591.99 352.702 591.99C342.381 591.99 332.621 592.103 323.422 592.327C314.224 592.327 306.932 592.551 301.547 593V586.269C312.99 585.82 320.169 583.913 323.086 580.548C326.227 576.958 325.554 569.442 321.067 557.999L263.854 401.506L269.912 392.756L218.757 526.028C213.821 538.368 210.792 548.464 209.67 556.317C208.773 564.169 209.334 570.227 211.353 574.49C213.597 578.753 217.074 581.782 221.786 583.577C226.722 585.147 232.555 586.045 239.286 586.269V593C231.882 592.551 224.815 592.327 218.084 592.327C211.353 592.103 204.51 591.99 197.555 591.99C192.619 591.99 187.907 592.103 183.42 592.327C179.157 592.327 175.343 592.551 171.977 593V586.269C176.689 585.372 181.513 582.343 186.449 577.182C191.385 572.022 196.208 563.272 200.92 550.932L277.652 354.053C281.242 354.277 285.056 354.39 289.095 354.39C293.358 354.39 297.284 354.277 300.874 354.053ZM324.432 496.075V502.806H224.142L227.507 496.075H324.432ZM449.723 596.174C436.118 596.174 424.781 593.605 415.711 588.465C406.641 583.326 399.99 576.523 395.757 568.058C391.525 559.291 389.409 549.767 389.409 539.488C389.409 526.488 392.281 515.907 398.025 507.744C404.071 499.581 411.781 492.93 421.153 487.79C430.525 482.651 440.351 478.418 450.63 475.092C461.211 471.767 471.188 468.592 480.56 465.569C490.235 462.243 497.944 458.464 503.688 454.232C509.735 449.697 512.758 443.953 512.758 436.999V401.627C512.758 393.766 511.398 386.813 508.677 380.766C506.258 374.417 502.328 369.58 496.886 366.255C491.746 362.929 484.944 361.266 476.479 361.266C470.432 361.266 464.386 362.173 458.339 363.987C452.293 365.499 447.304 368.22 443.374 372.15C451.839 375.173 458.339 379.859 462.874 386.208C467.711 392.255 470.13 399.208 470.13 407.069C470.13 417.348 466.502 425.511 459.246 431.557C452.293 437.604 443.979 440.627 434.304 440.627C423.42 440.627 415.106 437.301 409.362 430.65C403.92 423.697 401.199 415.383 401.199 405.708C401.199 396.941 403.316 389.685 407.548 383.941C412.083 378.196 418.281 372.755 426.141 367.615C434.607 362.778 444.734 358.999 456.525 356.278C468.618 353.557 481.618 352.196 495.525 352.196C509.433 352.196 521.979 353.708 533.165 356.731C544.351 359.452 553.723 364.592 561.282 372.15C568.235 379.103 572.77 387.72 574.886 397.999C577.003 407.976 578.061 420.673 578.061 436.092V559.442C578.061 567 578.817 572.291 580.328 575.314C581.84 578.035 584.41 579.395 588.038 579.395C590.759 579.395 593.328 578.639 595.747 577.128C598.468 575.616 601.34 573.802 604.363 571.686L608.898 579.395C602.549 584.837 595.142 589.07 586.677 592.093C578.514 594.814 569.293 596.174 559.014 596.174C547.828 596.174 538.909 594.663 532.258 591.64C525.607 588.314 520.77 583.93 517.747 578.488C515.026 573.046 513.665 566.698 513.665 559.442C506.409 570.93 497.642 580 487.363 586.651C477.083 593 464.537 596.174 449.723 596.174ZM481.921 567.151C487.967 567.151 493.409 565.791 498.246 563.07C503.386 560.046 508.223 555.209 512.758 548.558V455.592C510.037 460.127 506.258 464.209 501.421 467.836C496.584 471.464 491.444 475.244 486.002 479.174C480.56 482.802 475.27 486.883 470.13 491.418C465.293 495.953 461.362 501.546 458.339 508.197C455.316 514.848 453.804 522.86 453.804 532.232C453.804 544.023 456.374 552.79 461.514 558.535C466.653 564.279 473.456 567.151 481.921 567.151Z" fill="#F8C93D"/>
<rect x="141" y="521" width="129" height="129" fill="#F8C93D"/>
<path fill-rule="evenodd" clip-rule="evenodd" d="M227.833 521C221.15 538.146 217.012 552.3 215.417 563.46C214.059 575.349 214.908 584.521 217.965 590.975C221.362 597.429 226.627 602.015 233.761 604.733C241.234 607.111 250.066 608.469 260.257 608.809V619C249.047 618.321 238.347 617.981 228.156 617.981C217.965 617.641 207.604 617.471 197.074 617.471C189.601 617.471 182.467 617.641 175.673 617.981C169.219 617.981 163.444 618.321 158.349 619V608.809C165.482 607.45 172.786 602.864 180.259 595.051C187.732 587.239 195.036 573.99 202.169 555.307L215.54 521L227.833 521Z" fill="#281C64"/>
<rect x="720" y="125" width="683" height="842" fill="#FFFBF1"/>
<rect x="37" y="125" width="683" height="842" fill="#FFFBF1"/>
<path d="M50 186.533L214.513 149.987C289.276 133.379 365.632 125 442.217 125H720V967.457H474.511C376.637 967.457 279.234 981 185.072 1007.7L50 1046L50 186.533Z" fill="#F8C93D"/>
<circle cx="399.5" cy="487.5" r="167.5" fill="#281C64"/>
<path d="M330.95 397.546L392.027 554.887C394.373 560.919 396.97 565.108 399.818 567.454C402.835 569.633 405.516 570.806 407.861 570.973V576C402.835 575.665 396.886 575.497 390.016 575.497C383.314 575.33 376.527 575.246 369.657 575.246C361.949 575.246 354.66 575.33 347.79 575.497C340.92 575.497 335.474 575.665 331.453 576V570.973C339.999 570.638 345.361 569.214 347.539 566.7C349.885 564.019 349.382 558.406 346.031 549.86L303.302 432.985L307.827 426.451L269.622 525.983C265.936 535.199 263.674 542.739 262.836 548.604C262.166 554.468 262.585 558.992 264.093 562.176C265.768 565.36 268.366 567.622 271.884 568.962C275.571 570.135 279.927 570.806 284.954 570.973V576C279.425 575.665 274.147 575.497 269.12 575.497C264.093 575.33 258.982 575.246 253.788 575.246C250.101 575.246 246.583 575.33 243.231 575.497C240.048 575.497 237.199 575.665 234.686 576V570.973C238.204 570.303 241.807 568.041 245.493 564.187C249.18 560.333 252.782 553.798 256.301 544.582L313.608 397.546C316.289 397.714 319.137 397.797 322.153 397.797C325.337 397.797 328.269 397.714 330.95 397.546ZM348.544 503.613V508.64H273.644L276.157 503.613H348.544ZM442.116 578.371C431.955 578.371 423.488 576.452 416.715 572.613C409.941 568.775 404.974 563.695 401.813 557.372C398.652 550.825 397.071 543.712 397.071 536.035C397.071 526.326 399.216 518.424 403.506 512.328C408.022 506.231 413.779 501.264 420.779 497.426C427.778 493.587 435.116 490.426 442.793 487.942C450.696 485.459 458.147 483.088 465.146 480.83C472.372 478.346 478.129 475.524 482.419 472.363C486.935 468.976 489.193 464.686 489.193 459.493V433.076C489.193 427.205 488.177 422.012 486.145 417.496C484.338 412.755 481.403 409.142 477.339 406.658C473.501 404.175 468.42 402.933 462.098 402.933C457.582 402.933 453.067 403.61 448.551 404.965C444.035 406.094 440.31 408.126 437.374 411.061C443.696 413.319 448.551 416.819 451.938 421.56C455.55 426.076 457.357 431.269 457.357 437.14C457.357 444.817 454.647 450.913 449.228 455.429C444.035 459.945 437.826 462.202 430.601 462.202C422.472 462.202 416.263 459.719 411.973 454.751C407.909 449.558 405.877 443.349 405.877 436.124C405.877 429.576 407.457 424.157 410.618 419.867C414.005 415.577 418.634 411.513 424.504 407.674C430.826 404.062 438.39 401.239 447.196 399.207C456.228 397.175 465.937 396.159 476.323 396.159C486.709 396.159 496.079 397.288 504.434 399.546C512.788 401.578 519.787 405.417 525.432 411.061C530.625 416.254 534.012 422.689 535.592 430.366C537.173 437.817 537.963 447.3 537.963 458.816V550.937C537.963 556.582 538.528 560.533 539.657 562.791C540.786 564.823 542.705 565.84 545.414 565.84C547.446 565.84 549.366 565.275 551.172 564.146C553.204 563.017 555.349 561.662 557.607 560.082L560.994 565.84C556.252 569.904 550.72 573.065 544.398 575.323C538.302 577.355 531.415 578.371 523.739 578.371C515.384 578.371 508.724 577.242 503.756 574.984C498.789 572.5 495.176 569.226 492.918 565.162C490.886 561.098 489.87 556.356 489.87 550.937C484.451 559.517 477.903 566.291 470.227 571.258C462.55 576 453.18 578.371 442.116 578.371ZM466.162 556.695C470.678 556.695 474.742 555.679 478.355 553.647C482.193 551.389 485.806 547.776 489.193 542.809V473.379C487.161 476.766 484.338 479.814 480.726 482.523C477.113 485.233 473.275 488.055 469.211 490.991C465.146 493.7 461.195 496.748 457.357 500.135C453.744 503.522 450.809 507.699 448.551 512.666C446.293 517.634 445.164 523.617 445.164 530.616C445.164 539.422 447.083 545.97 450.922 550.26C454.76 554.55 459.84 556.695 466.162 556.695Z" fill="#F8C93D"/>
<rect x="212.5" y="523.5" width="93" height="93" fill="#F8C93D" stroke="#281C64" stroke-width="3"/>
<path fill-rule="evenodd" clip-rule="evenodd" d="M272.52 524C267.161 537.526 263.861 548.628 262.621 557.307C261.606 566.186 262.24 573.036 264.524 577.856C267.061 582.676 270.993 586.101 276.321 588.131C281.902 589.907 288.498 590.921 296.109 591.175V598.786C287.737 598.279 279.745 598.025 272.135 598.025C264.524 597.771 256.786 597.644 248.921 597.644C243.34 597.644 238.012 597.771 232.939 598.025C228.118 598.025 223.805 598.279 220 598.786V591.175C225.328 590.16 230.782 586.735 236.363 580.9C241.945 575.065 247.399 565.171 252.727 551.218L263.335 524L272.52 524Z" fill="#281C64"/>
</svg>
