<svg width="1217" height="347" viewBox="0 0 1217 347" fill="none" xmlns="http://www.w3.org/2000/svg">
<line x1="-8.74228e-08" y1="288" x2="1156" y2="288" stroke="#FFFBF1" stroke-width="2"/>
<line x1="8.74228e-08" y1="138" x2="1156" y2="138" stroke="#FFFBF1" stroke-width="2"/>
<line x1="-8.74228e-08" y1="65" x2="1156" y2="64.9999" stroke="#FFFBF1" stroke-width="2"/>
<line x1="-8.74228e-08" y1="112" x2="1156" y2="112" stroke="#FFFBF1" stroke-width="2"/>
<line x1="-8.74228e-08" y1="303" x2="1156" y2="303" stroke="#FFFBF1" stroke-width="2"/>
<line y1="343" x2="1156" y2="343" stroke="#FFFBF1" stroke-width="2"/>
<path d="M66.0213 86.9211C70.3545 87.1094 75.9122 87.2978 82.6945 87.4862C89.6653 87.6746 96.5418 87.7688 103.324 87.7688C112.367 87.7688 120.939 87.6746 129.041 87.4862C137.33 87.2978 143.17 87.2036 146.562 87.2036C170.488 87.2036 188.386 92.3846 200.255 102.747C212.124 113.108 218.059 126.485 218.059 142.875C218.059 149.658 216.834 156.817 214.385 164.353C212.124 171.7 208.074 178.577 202.233 184.982C196.393 191.199 188.48 196.286 178.495 200.243C168.51 204.199 155.793 206.177 140.344 206.177H112.65V200.525H137.518C150.141 200.525 159.749 197.982 166.343 192.895C173.126 187.808 177.647 181.12 179.908 172.831C182.357 164.541 183.582 155.592 183.582 145.984C183.582 128.086 180.379 114.71 173.974 105.855C167.568 97.0004 156.452 92.573 140.627 92.573C132.526 92.573 127.157 94.1744 124.519 97.3772C122.07 100.58 120.845 107.08 120.845 116.876V256.479C120.845 263.45 121.599 268.725 123.106 272.305C124.613 275.696 127.439 277.957 131.584 279.087C135.729 280.218 141.852 280.877 149.953 281.065V287C144.866 286.623 138.272 286.435 130.171 286.435C122.07 286.246 113.686 286.152 105.02 286.152C97.4838 286.152 90.2305 286.246 83.2597 286.435C76.4774 286.435 70.7313 286.623 66.0213 287V281.348C72.4268 280.971 77.231 280.218 80.4338 279.087C83.6365 277.957 85.7089 275.696 86.6509 272.305C87.7813 268.914 88.3465 263.827 88.3465 257.045V116.876C88.3465 109.906 87.7813 104.819 86.6509 101.616C85.7089 98.2249 83.5423 95.9642 80.1512 94.8338C76.9484 93.515 72.2384 92.7614 66.0213 92.573V86.9211ZM279.87 65.4436V260.718C279.87 268.631 281.377 274.001 284.392 276.826C287.595 279.652 292.87 281.065 300.217 281.065V287C297.014 286.812 292.022 286.623 285.24 286.435C278.457 286.058 271.675 285.87 264.893 285.87C258.11 285.87 251.234 286.058 244.263 286.435C237.481 286.623 232.394 286.812 229.003 287V281.065C236.35 281.065 241.531 279.652 244.546 276.826C247.748 274.001 249.35 268.631 249.35 260.718V99.3553C249.35 90.8774 247.937 84.6603 245.111 80.7039C242.285 76.5591 236.915 74.4868 229.003 74.4868V68.5522C235.031 69.1174 240.872 69.4 246.524 69.4C252.741 69.4 258.675 69.1174 264.327 68.5522C269.979 67.7986 275.16 66.7624 279.87 65.4436ZM353.613 288.978C345.7 288.978 338.918 287.471 333.266 284.457C327.614 281.442 323.375 277.297 320.549 272.022C317.723 266.747 316.31 260.718 316.31 253.936C316.31 245.647 318.194 238.958 321.962 233.872C325.73 228.597 330.534 224.358 336.374 221.155C342.403 217.952 348.714 215.314 355.308 213.242C362.091 210.981 368.402 208.909 374.242 207.025C380.271 204.953 385.169 202.598 388.937 199.96C392.894 197.322 394.872 193.837 394.872 189.504V170.287C394.872 163.505 393.742 158.136 391.481 154.179C389.408 150.034 386.488 147.114 382.72 145.419C379.141 143.723 374.808 142.875 369.721 142.875C365.388 142.875 360.772 143.535 355.873 144.854C350.975 145.984 347.113 148.339 344.287 151.918C348.432 153.049 351.823 155.31 354.461 158.701C357.286 161.904 358.699 165.954 358.699 170.852C358.699 176.128 356.91 180.272 353.33 183.287C349.939 186.301 345.606 187.808 340.331 187.808C334.49 187.808 330.157 186.019 327.331 182.439C324.505 178.671 323.092 174.338 323.092 169.439C323.092 164.353 324.317 160.208 326.766 157.005C329.404 153.802 332.795 150.788 336.939 147.962C341.461 144.948 347.207 142.404 354.178 140.332C361.337 138.26 369.25 137.223 377.916 137.223C386.017 137.223 392.988 138.165 398.828 140.049C404.857 141.745 409.85 144.571 413.806 148.527C418.516 152.86 421.624 158.324 423.132 164.918C424.639 171.323 425.392 179.142 425.392 188.374V266.37C425.392 271.08 425.958 274.472 427.088 276.544C428.407 278.428 430.479 279.37 433.305 279.37C435.189 279.37 436.979 278.899 438.675 277.957C440.559 277.015 442.725 275.602 445.174 273.718L448 278.522C444.044 281.725 439.993 284.268 435.849 286.152C431.892 288.036 426.805 288.978 420.588 288.978C414.56 288.978 409.661 288.036 405.893 286.152C402.125 284.268 399.299 281.536 397.415 277.957C395.72 274.377 394.872 269.95 394.872 264.675C389.974 272.588 384.133 278.616 377.351 282.761C370.569 286.906 362.656 288.978 353.613 288.978ZM367.177 275.414C372.453 275.414 377.351 273.906 381.872 270.892C386.582 267.878 390.916 263.356 394.872 257.327V201.09C392.8 204.105 389.785 206.742 385.829 209.003C381.872 211.075 377.633 213.242 373.112 215.503C368.59 217.764 364.257 220.401 360.112 223.416C356.156 226.242 352.859 229.915 350.222 234.437C347.584 238.958 346.265 244.705 346.265 251.675C346.265 259.023 348.149 264.863 351.917 269.196C355.685 273.341 360.772 275.414 367.177 275.414ZM588.182 141.18V146.832C584.602 147.397 581.305 149.281 578.291 152.484C575.277 155.498 572.356 160.773 569.53 168.309L525.445 286.435L518.663 293.217L463.556 162.94C459.977 155.592 456.491 151.165 453.1 149.658C449.897 147.962 447.166 147.114 444.905 147.114V141.18C449.615 141.745 454.607 142.216 459.883 142.593C465.158 142.781 470.621 142.875 476.273 142.875C482.679 142.875 489.084 142.687 495.49 142.31C502.084 141.933 508.207 141.557 513.859 141.18V147.114C509.337 147.114 505.287 147.491 501.707 148.245C498.316 148.81 496.055 150.6 494.925 153.614C493.983 156.44 494.925 161.338 497.751 168.309L532.793 254.501L530.815 255.349L559.357 179.613C562.183 172.077 563.313 166.048 562.748 161.527C562.183 156.817 560.205 153.331 556.814 151.071C553.422 148.621 548.43 147.208 541.836 146.832V141.18C545.039 141.368 547.959 141.557 550.596 141.745C553.422 141.745 556.154 141.839 558.792 142.028C561.429 142.028 564.067 142.028 566.704 142.028C570.849 142.028 574.711 141.933 578.291 141.745C582.059 141.557 585.356 141.368 588.182 141.18ZM525.445 286.435L515.272 312.999C513.388 317.709 511.41 321.665 509.337 324.868C507.453 328.071 505.381 330.708 503.12 332.781C500.294 335.418 496.809 337.302 492.664 338.433C488.519 339.563 484.374 340.128 480.23 340.128C476.273 340.128 472.505 339.375 468.926 337.868C465.535 336.549 462.709 334.476 460.448 331.65C458.187 328.824 457.057 325.339 457.057 321.194C457.057 316.296 458.658 312.34 461.861 309.325C465.064 306.311 469.303 304.804 474.578 304.804C479.288 304.804 483.244 306.028 486.447 308.477C489.65 311.115 491.251 314.883 491.251 319.781C491.251 323.172 490.309 326.093 488.425 328.542C486.729 330.991 484.469 332.875 481.643 334.194C482.208 334.382 482.773 334.476 483.338 334.476C483.903 334.476 484.374 334.476 484.751 334.476C490.026 334.476 494.736 332.687 498.881 329.107C503.026 325.716 506.511 320.158 509.337 312.434L519.511 285.304L525.445 286.435ZM667.309 66.0088C672.961 66.0088 677.954 66.7624 682.287 68.2696C686.62 69.7768 690.482 71.755 693.873 74.2042C696.511 76.4649 698.677 79.1967 700.373 82.3995C702.069 85.6023 702.916 89.0876 702.916 92.8556C702.916 97.5655 701.315 101.522 698.112 104.725C695.098 107.927 691.141 109.529 686.243 109.529C681.345 109.529 677.2 108.022 673.809 105.007C670.418 101.993 668.722 97.8481 668.722 92.573C668.722 88.2398 669.852 84.6603 672.113 81.8343C674.562 79.0083 677.859 77.0301 682.004 75.8997C681.439 74.3926 680.12 73.168 678.048 72.226C675.975 71.0956 673.149 70.5304 669.57 70.5304C665.425 70.5304 661.845 71.3782 658.831 73.0738C656.005 74.7694 653.744 77.0301 652.049 79.8561C649.976 83.4357 648.563 88.805 647.81 95.9642C647.245 102.935 646.962 113.674 646.962 128.18V141.462H677.2V147.114H646.962V257.892C646.962 267.124 649.505 273.341 654.592 276.544C659.867 279.558 666.932 281.065 675.787 281.065V287C671.265 286.812 664.86 286.623 656.57 286.435C648.469 286.058 639.803 285.87 630.571 285.87C623.977 285.87 617.383 286.058 610.79 286.435C604.384 286.623 599.486 286.812 596.094 287V281.065C603.442 281.065 608.623 279.652 611.637 276.826C614.84 274.001 616.442 268.631 616.442 260.718V147.114H594.964V141.462H616.442C616.442 130.347 616.912 121.115 617.854 113.768C618.985 106.232 620.68 99.8263 622.941 94.5512C625.202 89.0876 628.216 84.2835 631.984 80.1387C635.941 75.9939 640.933 72.6028 646.962 69.9652C653.179 67.3276 659.961 66.0088 667.309 66.0088ZM731.421 288.978C723.508 288.978 716.726 287.471 711.074 284.457C705.422 281.442 701.183 277.297 698.357 272.022C695.531 266.747 694.118 260.718 694.118 253.936C694.118 245.647 696.002 238.958 699.77 233.872C703.538 228.597 708.342 224.358 714.183 221.155C720.211 217.952 726.523 215.314 733.117 213.242C739.899 210.981 746.21 208.909 752.051 207.025C758.079 204.953 762.978 202.598 766.746 199.96C770.702 197.322 772.68 193.837 772.68 189.504V170.287C772.68 163.505 771.55 158.136 769.289 154.179C767.217 150.034 764.297 147.114 760.529 145.419C756.949 143.723 752.616 142.875 747.529 142.875C743.196 142.875 738.58 143.535 733.682 144.854C728.784 145.984 724.921 148.339 722.095 151.918C726.24 153.049 729.631 155.31 732.269 158.701C735.095 161.904 736.508 165.954 736.508 170.852C736.508 176.128 734.718 180.272 731.139 183.287C727.747 186.301 723.414 187.808 718.139 187.808C712.299 187.808 707.966 186.019 705.14 182.439C702.314 178.671 700.901 174.338 700.901 169.439C700.901 164.353 702.125 160.208 704.574 157.005C707.212 153.802 710.603 150.788 714.748 147.962C719.269 144.948 725.016 142.404 731.986 140.332C739.145 138.26 747.058 137.223 755.725 137.223C763.826 137.223 770.796 138.165 776.637 140.049C782.665 141.745 787.658 144.571 791.614 148.527C796.324 152.86 799.433 158.324 800.94 164.918C802.447 171.323 803.201 179.142 803.201 188.374V266.37C803.201 271.08 803.766 274.472 804.896 276.544C806.215 278.428 808.288 279.37 811.114 279.37C812.998 279.37 814.787 278.899 816.483 277.957C818.367 277.015 820.534 275.602 822.983 273.718L825.809 278.522C821.852 281.725 817.802 284.268 813.657 286.152C809.701 288.036 804.614 288.978 798.397 288.978C792.368 288.978 787.47 288.036 783.702 286.152C779.934 284.268 777.108 281.536 775.224 277.957C773.528 274.377 772.68 269.95 772.68 264.675C767.782 272.588 761.942 278.616 755.159 282.761C748.377 286.906 740.464 288.978 731.421 288.978ZM744.986 275.414C750.261 275.414 755.159 273.906 759.681 270.892C764.391 267.878 768.724 263.356 772.68 257.327V201.09C770.608 204.105 767.594 206.742 763.637 209.003C759.681 211.075 755.442 213.242 750.92 215.503C746.399 217.764 742.066 220.401 737.921 223.416C733.965 226.242 730.668 229.915 728.03 234.437C725.392 238.958 724.074 244.705 724.074 251.675C724.074 259.023 725.958 264.863 729.726 269.196C733.494 273.341 738.58 275.414 744.986 275.414ZM868.165 69.9652C874.006 69.9652 878.904 71.8492 882.86 75.6172C886.817 79.1967 888.795 83.7183 888.795 89.1818C888.795 94.6454 886.817 99.2611 882.86 103.029C878.904 106.609 874.006 108.398 868.165 108.398C862.325 108.398 857.426 106.609 853.47 103.029C849.514 99.2611 847.536 94.6454 847.536 89.1818C847.536 83.7183 849.514 79.1967 853.47 75.6172C857.426 71.8492 862.325 69.9652 868.165 69.9652ZM885.121 138.071V260.718C885.121 268.631 886.628 274.001 889.643 276.826C892.845 279.652 898.12 281.065 905.468 281.065V287C902.265 286.812 897.273 286.623 890.49 286.435C883.896 286.058 877.114 285.87 870.143 285.87C863.549 285.87 856.767 286.058 849.796 286.435C842.826 286.623 837.645 286.812 834.253 287V281.065C841.601 281.065 846.782 279.652 849.796 276.826C852.999 274.001 854.6 268.631 854.6 260.718V171.983C854.6 163.505 853.188 157.288 850.362 153.331C847.536 149.187 842.166 147.114 834.253 147.114V141.18C840.282 141.745 846.123 142.028 851.775 142.028C858.18 142.028 864.115 141.745 869.578 141.18C875.23 140.426 880.411 139.39 885.121 138.071ZM1009.97 137.223C1015.44 137.223 1020.05 138.354 1023.82 140.615C1027.78 142.875 1030.7 145.795 1032.58 149.375C1034.65 152.766 1035.69 156.628 1035.69 160.962C1035.69 166.425 1033.99 171.135 1030.6 175.091C1027.4 178.859 1023.07 180.743 1017.6 180.743C1012.89 180.743 1008.84 179.33 1005.45 176.504C1002.25 173.678 1000.65 169.816 1000.65 164.918C1000.65 160.773 1001.68 157.288 1003.76 154.462C1006.02 151.447 1008.56 149.092 1011.39 147.397C1009.5 145.89 1007.24 145.23 1004.6 145.419C999.518 145.607 994.808 147.303 990.475 150.505C986.141 153.52 982.468 157.476 979.453 162.375C976.439 167.085 974.084 172.171 972.388 177.635C970.693 183.098 969.845 188.185 969.845 192.895V257.892C969.845 267.124 972.388 273.341 977.475 276.544C982.562 279.558 989.627 281.065 998.67 281.065V287C994.337 286.812 988.12 286.623 980.019 286.435C972.106 286.058 963.722 285.87 954.867 285.87C948.085 285.87 941.303 286.058 934.52 286.435C927.738 286.623 922.557 286.812 918.977 287V281.065C926.325 281.065 931.506 279.652 934.52 276.826C937.723 274.001 939.324 268.631 939.324 260.718V171.983C939.324 163.505 937.912 157.288 935.086 153.331C932.26 149.187 926.89 147.114 918.977 147.114V141.18C925.006 141.745 930.847 142.028 936.499 142.028C942.904 142.028 948.839 141.745 954.302 141.18C959.954 140.426 965.135 139.39 969.845 138.071V170.57C972.106 165.106 975.12 159.831 978.888 154.744C982.656 149.658 987.178 145.513 992.453 142.31C997.728 138.919 1003.57 137.223 1009.97 137.223Z" fill="#FFFBF1"/>
<path d="M1181.22 201.152V223.292C1181.22 224.108 1181.29 224.732 1181.43 225.164C1181.58 225.572 1181.85 225.848 1182.26 225.992C1182.67 226.136 1183.26 226.232 1184.02 226.28V227C1183.5 226.952 1182.8 226.928 1181.94 226.928C1181.1 226.904 1180.2 226.892 1179.24 226.892C1178.2 226.892 1177.18 226.904 1176.18 226.928C1175.17 226.928 1174.35 226.952 1173.73 227V226.28C1174.69 226.232 1175.43 226.136 1175.96 225.992C1176.49 225.824 1176.85 225.512 1177.04 225.056C1177.23 224.6 1177.33 223.94 1177.33 223.076V206.912C1177.33 206.072 1177.21 205.46 1176.97 205.076C1176.73 204.668 1176.31 204.404 1175.71 204.284C1175.11 204.164 1174.28 204.104 1173.22 204.104V203.348C1175.29 203.06 1176.93 202.724 1178.16 202.34C1179.38 201.932 1180.4 201.536 1181.22 201.152Z" fill="#FFFBF1"/>
<line x1="1154" y1="144" x2="1154" y2="280" stroke="#FFFBF1" stroke-width="4"/>
<path d="M1181.22 311.152V333.292C1181.22 334.108 1181.29 334.732 1181.43 335.164C1181.58 335.572 1181.85 335.848 1182.26 335.992C1182.67 336.136 1183.26 336.232 1184.02 336.28V337C1183.5 336.952 1182.8 336.928 1181.94 336.928C1181.1 336.904 1180.2 336.892 1179.24 336.892C1178.2 336.892 1177.18 336.904 1176.18 336.928C1175.17 336.928 1174.35 336.952 1173.73 337V336.28C1174.69 336.232 1175.43 336.136 1175.96 335.992C1176.49 335.824 1176.85 335.512 1177.04 335.056C1177.23 334.6 1177.33 333.94 1177.33 333.076V316.912C1177.33 316.072 1177.21 315.46 1176.97 315.076C1176.73 314.668 1176.31 314.404 1175.71 314.284C1175.11 314.164 1174.28 314.104 1173.22 314.104V313.348C1175.29 313.06 1176.93 312.724 1178.16 312.34C1179.38 311.932 1180.4 311.536 1181.22 311.152ZM1197.42 311.008L1187.63 337.504H1186.44L1196.23 311.008H1197.42ZM1210.78 311.008L1210.71 312.16L1198.5 330.016L1199.73 327.928H1215.68V330.7H1197.71V329.98L1210.78 311.008ZM1211.36 311.008V333.184C1211.36 334.048 1211.42 334.696 1211.54 335.128C1211.68 335.56 1211.96 335.848 1212.36 335.992C1212.77 336.136 1213.36 336.232 1214.13 336.28V337C1213.6 336.952 1212.9 336.928 1212.04 336.928C1211.2 336.904 1210.29 336.892 1209.3 336.892C1208.37 336.892 1207.43 336.904 1206.5 336.928C1205.58 336.928 1204.82 336.952 1204.19 337V336.28C1205.15 336.232 1205.88 336.136 1206.39 335.992C1206.92 335.848 1207.26 335.56 1207.43 335.128C1207.6 334.696 1207.68 334.048 1207.68 333.184V316.228L1210.78 311.008H1211.36Z" fill="#FFFBF1"/>
<line x1="1154" y1="309" x2="1154" y2="335" stroke="#FFFBF1" stroke-width="4"/>
<path d="M1181.22 77.152V99.292C1181.22 100.108 1181.29 100.732 1181.43 101.164C1181.58 101.572 1181.85 101.848 1182.26 101.992C1182.67 102.136 1183.26 102.232 1184.02 102.28V103C1183.5 102.952 1182.8 102.928 1181.94 102.928C1181.1 102.904 1180.2 102.892 1179.24 102.892C1178.2 102.892 1177.18 102.904 1176.18 102.928C1175.17 102.928 1174.35 102.952 1173.73 103V102.28C1174.69 102.232 1175.43 102.136 1175.96 101.992C1176.49 101.824 1176.85 101.512 1177.04 101.056C1177.23 100.6 1177.33 99.94 1177.33 99.076V82.912C1177.33 82.072 1177.21 81.46 1176.97 81.076C1176.73 80.668 1176.31 80.404 1175.71 80.284C1175.11 80.164 1174.28 80.104 1173.22 80.104V79.348C1175.29 79.06 1176.93 78.724 1178.16 78.34C1179.38 77.932 1180.4 77.536 1181.22 77.152ZM1197.42 77.008L1187.63 103.504H1186.44L1196.23 77.008H1197.42ZM1210.78 77.008L1210.71 78.16L1198.5 96.016L1199.73 93.928H1215.68V96.7H1197.71V95.98L1210.78 77.008ZM1211.36 77.008V99.184C1211.36 100.048 1211.42 100.696 1211.54 101.128C1211.68 101.56 1211.96 101.848 1212.36 101.992C1212.77 102.136 1213.36 102.232 1214.13 102.28V103C1213.6 102.952 1212.9 102.928 1212.04 102.928C1211.2 102.904 1210.29 102.892 1209.3 102.892C1208.37 102.892 1207.43 102.904 1206.5 102.928C1205.58 102.928 1204.82 102.952 1204.19 103V102.28C1205.15 102.232 1205.88 102.136 1206.39 101.992C1206.92 101.848 1207.26 101.56 1207.43 101.128C1207.6 100.696 1207.68 100.048 1207.68 99.184V82.228L1210.78 77.008H1211.36Z" fill="#FFFBF1"/>
<line x1="1154" y1="71" x2="1154" y2="105" stroke="#FFFBF1" stroke-width="4"/>
</svg>
