<svg width="404" height="789" viewBox="0 0 404 789" fill="none" xmlns="http://www.w3.org/2000/svg">
<rect x="311" width="710" height="343" rx="20" transform="rotate(64.8631 311 0)" fill="#EC2C5D"/>
<rect x="264" y="49" width="662" height="255" rx="10" transform="rotate(64.8631 264 49)" fill="#281C64"/>
<mask id="path-3-outside-1_132_358" maskUnits="userSpaceOnUse" x="81.8022" y="86.6771" width="219.463" height="219.463" fill="black">
<rect fill="white" x="81.8022" y="86.6771" width="219.463" height="219.463"/>
<path fill-rule="evenodd" clip-rule="evenodd" d="M260.116 181.312C265.116 178.966 267.267 173.011 264.921 168.011L260.248 158.053C257.902 153.053 251.948 150.902 246.948 153.248L207.864 171.587C202.864 173.933 196.909 171.781 194.563 166.781L176.312 127.885C173.966 122.885 168.011 120.734 163.012 123.08L153.053 127.752C148.053 130.098 145.902 136.053 148.248 141.053L166.499 179.95C168.845 184.95 166.694 190.904 161.694 193.25L122.922 211.443C117.922 213.789 115.771 219.744 118.117 224.744L122.79 234.702C125.136 239.702 131.091 241.853 136.09 239.507L174.862 221.315C179.862 218.969 185.817 221.12 188.163 226.12L206.443 265.078C208.789 270.078 214.744 272.23 219.744 269.884L229.702 265.211C234.702 262.865 236.853 256.91 234.507 251.91L216.227 212.952C213.881 207.952 216.033 201.997 221.032 199.651L260.116 181.312Z"/>
</mask>
<path fill-rule="evenodd" clip-rule="evenodd" d="M260.116 181.312C265.116 178.966 267.267 173.011 264.921 168.011L260.248 158.053C257.902 153.053 251.948 150.902 246.948 153.248L207.864 171.587C202.864 173.933 196.909 171.781 194.563 166.781L176.312 127.885C173.966 122.885 168.011 120.734 163.012 123.08L153.053 127.752C148.053 130.098 145.902 136.053 148.248 141.053L166.499 179.95C168.845 184.95 166.694 190.904 161.694 193.25L122.922 211.443C117.922 213.789 115.771 219.744 118.117 224.744L122.79 234.702C125.136 239.702 131.091 241.853 136.09 239.507L174.862 221.315C179.862 218.969 185.817 221.12 188.163 226.12L206.443 265.078C208.789 270.078 214.744 272.23 219.744 269.884L229.702 265.211C234.702 262.865 236.853 256.91 234.507 251.91L216.227 212.952C213.881 207.952 216.033 201.997 221.032 199.651L260.116 181.312Z" fill="#EC2C5D"/>
<path d="M206.443 265.078L202.822 266.778L206.443 265.078ZM260.116 181.312L258.417 177.691L260.116 181.312ZM256.627 159.752L261.3 169.71L268.542 166.312L263.87 156.354L256.627 159.752ZM209.563 175.208L248.647 156.869L245.249 149.627L206.165 167.965L209.563 175.208ZM172.691 129.584L190.942 168.481L198.185 165.082L179.933 126.186L172.691 129.584ZM154.752 131.373L164.711 126.701L161.312 119.458L151.354 124.131L154.752 131.373ZM170.12 178.251L151.869 139.354L144.627 142.752L162.878 181.649L170.12 178.251ZM124.621 215.064L163.393 196.872L159.995 189.629L121.223 207.822L124.621 215.064ZM126.411 233.003L121.738 223.045L114.496 226.443L119.168 236.401L126.411 233.003ZM173.163 217.693L134.391 235.886L137.79 243.128L176.561 224.936L173.163 217.693ZM210.064 263.379L191.784 224.421L184.542 227.819L202.822 266.778L210.064 263.379ZM228.003 261.59L218.045 266.262L221.443 273.505L231.401 268.832L228.003 261.59ZM212.606 214.651L230.886 253.609L238.129 250.211L219.848 211.252L212.606 214.651ZM258.417 177.691L219.333 196.03L222.732 203.272L261.815 184.933L258.417 177.691ZM219.848 211.252C218.441 208.252 219.732 204.68 222.732 203.272L219.333 196.03C212.334 199.314 209.322 207.651 212.606 214.651L219.848 211.252ZM231.401 268.832C238.401 265.548 241.413 257.211 238.129 250.211L230.886 253.609C232.294 256.609 231.003 260.182 228.003 261.59L231.401 268.832ZM202.822 266.778C206.107 273.777 214.443 276.789 221.443 273.505L218.045 266.262C215.045 267.67 211.472 266.379 210.064 263.379L202.822 266.778ZM176.561 224.936C179.561 223.528 183.134 224.819 184.542 227.819L191.784 224.421C188.5 217.421 180.163 214.409 173.163 217.693L176.561 224.936ZM119.168 236.401C122.453 243.401 130.79 246.413 137.79 243.128L134.391 235.886C131.391 237.294 127.818 236.003 126.411 233.003L119.168 236.401ZM121.223 207.822C114.223 211.106 111.211 219.443 114.496 226.443L121.738 223.045C120.331 220.045 121.621 216.472 124.621 215.064L121.223 207.822ZM162.878 181.649C164.286 184.649 162.995 188.222 159.995 189.629L163.393 196.872C170.393 193.587 173.405 185.25 170.12 178.251L162.878 181.649ZM151.354 124.131C144.354 127.415 141.343 135.752 144.627 142.752L151.869 139.354C150.462 136.354 151.752 132.781 154.752 131.373L151.354 124.131ZM179.933 126.186C176.649 119.186 168.312 116.174 161.312 119.458L164.711 126.701C167.711 125.293 171.283 126.584 172.691 129.584L179.933 126.186ZM206.165 167.965C203.165 169.373 199.592 168.082 198.185 165.082L190.942 168.481C194.227 175.48 202.564 178.492 209.563 175.208L206.165 167.965ZM261.3 169.71C262.707 172.71 261.417 176.283 258.417 177.691L261.815 184.933C268.815 181.649 271.827 173.312 268.542 166.312L261.3 169.71ZM263.87 156.354C260.585 149.354 252.248 146.342 245.249 149.627L248.647 156.869C251.647 155.461 255.22 156.752 256.627 159.752L263.87 156.354Z" fill="#281C64" mask="url(#path-3-outside-1_132_358)"/>
<path d="M352.474 250.124C354.973 248.951 357.951 250.027 359.124 252.526L449.178 444.449C450.351 446.949 449.275 449.927 446.775 451.1L425.953 460.87C423.453 462.043 420.476 460.967 419.303 458.467L329.249 266.544C328.076 264.044 329.152 261.067 331.652 259.894L352.474 250.124Z" fill="#A01789"/>
<rect x="299" y="275" width="222" height="49" rx="5" transform="rotate(64.8631 299 275)" fill="#A01789"/>
<path d="M151.474 344.124C153.974 342.951 156.952 344.027 158.125 346.526L248.179 538.449C249.352 540.949 248.276 543.927 245.776 545.1L224.954 554.87C222.454 556.043 219.477 554.967 218.304 552.467L128.25 360.544C127.077 358.044 128.153 355.067 130.653 353.894L151.474 344.124Z" fill="#A01789"/>
<rect x="228" y="309" width="222" height="49" rx="5" transform="rotate(64.8631 228 309)" fill="#FFFBF1"/>
<rect x="222" y="328" width="66" height="22" rx="10" transform="rotate(64.8631 222 328)" fill="#281C64"/>
<rect x="276" y="442" width="66" height="22" rx="10" transform="rotate(64.8631 276 442)" fill="#281C64"/>
<circle cx="327.501" cy="579.208" r="38.5" transform="rotate(64.8631 327.501 579.208)" fill="#EC2C5D"/>
<circle cx="368.5" cy="664.208" r="38.5" transform="rotate(64.8631 368.5 664.208)" fill="#EC2C5D"/>
</svg>
