<svg width="605" height="794" viewBox="0 0 605 794" fill="none" xmlns="http://www.w3.org/2000/svg">
<path fill-rule="evenodd" clip-rule="evenodd" d="M-154.202 531.454C-162.375 524.024 -162.976 511.375 -155.546 503.202L287.762 15.5958C295.192 7.42294 307.841 6.82103 316.014 14.2514L589.044 262.477C597.216 269.907 597.818 282.556 590.388 290.729L147.08 778.335C139.65 786.508 127.001 787.11 118.828 779.679L-154.202 531.454ZM136.422 464.997C156.037 482.83 157.632 513.022 139.985 532.433C122.338 551.844 92.131 553.122 72.5161 535.289C52.9011 517.456 51.3059 487.265 68.9531 467.854C86.6004 448.443 116.807 447.164 136.422 464.997ZM344.985 307.433C362.632 288.022 361.037 257.83 341.422 239.997C321.807 222.164 291.6 223.443 273.953 242.854C256.306 262.265 257.901 292.457 277.516 310.289C297.131 328.122 327.338 326.844 344.985 307.433Z" fill="#EC2C5D"/>
<mask id="path-2-inside-1_132_318" fill="white">
<path fill-rule="evenodd" clip-rule="evenodd" d="M60.9848 546.716C35.0358 523.125 33.1247 482.964 56.7163 457.015L261.889 231.34C285.481 205.391 325.641 203.48 351.59 227.072C377.539 250.663 379.45 290.824 355.859 316.773L150.686 542.448C127.094 568.397 86.9338 570.308 60.9848 546.716ZM135.052 464.661C154.463 482.308 155.893 512.35 138.245 531.76C120.598 551.171 90.5567 552.6 71.1461 534.953C51.7354 517.306 50.3059 487.265 67.9531 467.854C85.6004 448.443 115.642 447.014 135.052 464.661ZM343.245 306.76C360.893 287.35 359.463 257.308 340.052 239.661C320.642 222.014 290.6 223.443 272.953 242.854C255.306 262.265 256.735 292.306 276.146 309.953C295.557 327.6 325.598 326.171 343.245 306.76Z"/>
</mask>
<path fill-rule="evenodd" clip-rule="evenodd" d="M60.9848 546.716C35.0358 523.125 33.1247 482.964 56.7163 457.015L261.889 231.34C285.481 205.391 325.641 203.48 351.59 227.072C377.539 250.663 379.45 290.824 355.859 316.773L150.686 542.448C127.094 568.397 86.9338 570.308 60.9848 546.716ZM135.052 464.661C154.463 482.308 155.893 512.35 138.245 531.76C120.598 551.171 90.5567 552.6 71.1461 534.953C51.7354 517.306 50.3059 487.265 67.9531 467.854C85.6004 448.443 115.642 447.014 135.052 464.661ZM343.245 306.76C360.893 287.35 359.463 257.308 340.052 239.661C320.642 222.014 290.6 223.443 272.953 242.854C255.306 262.265 256.735 292.306 276.146 309.953C295.557 327.6 325.598 326.171 343.245 306.76Z" fill="#281C64"/>
<path d="M355.859 316.773L358.818 319.464L355.859 316.773ZM150.686 542.448L147.726 539.757L150.686 542.448ZM53.7566 454.324C28.679 481.908 30.7104 524.598 58.294 549.676L63.6756 543.757C39.3612 521.651 37.5705 484.02 59.676 459.706L53.7566 454.324ZM258.929 228.65L53.7566 454.324L59.676 459.706L264.849 234.031L258.929 228.65ZM354.281 224.112C326.697 199.035 284.007 201.066 258.929 228.65L264.849 234.031C286.954 209.717 324.585 207.926 348.899 230.031L354.281 224.112ZM358.818 319.464C383.896 291.88 381.864 249.19 354.281 224.112L348.899 230.031C373.214 252.137 375.004 289.768 352.899 314.082L358.818 319.464ZM153.646 545.139L358.818 319.464L352.899 314.082L147.726 539.757L153.646 545.139ZM58.294 549.676C85.8775 574.754 128.568 572.722 153.646 545.139L147.726 539.757C125.621 564.071 87.99 565.862 63.6756 543.757L58.294 549.676ZM141.205 534.451C160.338 513.406 158.788 480.835 137.743 461.701L132.362 467.621C150.138 483.782 151.447 511.293 135.286 529.069L141.205 534.451ZM68.4553 537.913C89.5005 557.046 122.072 555.496 141.205 534.451L135.286 529.069C119.125 546.845 91.613 548.155 73.8369 531.993L68.4553 537.913ZM64.9935 465.163C45.8601 486.208 47.4101 518.779 68.4553 537.913L73.8369 531.993C56.0608 515.832 54.7517 488.321 70.9128 470.545L64.9935 465.163ZM137.743 461.701C116.698 442.568 84.1268 444.118 64.9935 465.163L70.9128 470.545C87.0739 452.769 114.585 451.459 132.362 467.621L137.743 461.701ZM337.362 242.621C355.138 258.782 356.447 286.293 340.286 304.069L346.205 309.451C365.338 288.406 363.788 255.835 342.743 236.701L337.362 242.621ZM275.913 245.545C292.074 227.769 319.585 226.459 337.362 242.621L342.743 236.701C321.698 217.568 289.127 219.118 269.993 240.163L275.913 245.545ZM278.837 306.993C261.061 290.832 259.752 263.321 275.913 245.545L269.993 240.163C250.86 261.208 252.41 293.78 273.455 312.913L278.837 306.993ZM340.286 304.069C324.124 321.845 296.613 323.155 278.837 306.993L273.455 312.913C294.501 332.046 327.072 330.496 346.205 309.451L340.286 304.069Z" fill="#EC2C5D" mask="url(#path-2-inside-1_132_318)"/>
<path d="M179.949 593.125C176.452 582.799 178.832 571.388 186.166 563.321L379.893 350.236C387.227 342.169 398.36 338.716 408.972 341.217L471.302 355.905C493.558 361.149 502 388.367 486.618 405.286L251.102 664.337C235.72 681.256 207.824 675.436 200.489 653.779L179.949 593.125Z" fill="#FFFBF1"/>
<rect x="-128" y="521" width="76" height="332" rx="10" transform="rotate(-47.7244 -128 521)" fill="#281C64"/>
<rect x="254" y="94" width="76" height="332" rx="10" transform="rotate(-47.7244 254 94)" fill="#281C64"/>
<rect x="-76" y="569" width="76" height="649" rx="10" transform="rotate(-137.724 -76 569)" fill="#281C64"/>
</svg>
